<svg width="64" height="16" fill="none" xmlns="http://www.w3.org/2000/svg" viewBox="0 0 64 16"><path d="M38.788 4.552c-.938 0-1.848.248-2.648.69 0-2.373.027-4.442.083-5.242L31.34.938v.441l.469.055c.69.083.938.497 1.02 1.407.138 1.766.138 11.118 0 12.607 1.38.331 2.76.497 4.166.524 3.89 0 6.235-2.4 6.235-6.206 0-3.035-1.904-5.214-4.442-5.214zM37.106 15.2a4.21 4.21 0 01-.828-.083c-.083-1.048-.138-5.38-.11-9.186a3.147 3.147 0 011.13-.193c1.6 0 2.511 1.876 2.511 4.193-.027 3.007-1.131 5.269-2.703 5.269zM12.938 4.662l-.745.193c-.69-2.207-1.738-3.476-3.725-3.476H5.931c-.11 1.435-.165 3.78-.138 6.235l1.71-.055c1.132-.028 1.6-.883 1.877-2.125h.634v5.214H9.38c-.276-1.269-.745-2.096-1.904-2.151l-1.71-.056c.027 1.876.083 3.449.138 4.387.11 1.379.496 1.986 1.49 2.151l.855.083v.635H0v-.635l.69-.083c.965-.138 1.38-.744 1.49-2.151.193-2.29.22-7.035 0-9.683-.11-1.38-.497-1.986-1.49-2.124L0 .938V.33h12.883l.056 4.331zm4.11-.248c3.67 0 5.463 2.483 5.463 5.765 0 3.283-2.042 5.793-5.711 5.793-3.67 0-5.49-2.482-5.49-5.737.027-3.283 2.069-5.821 5.738-5.821zm-.165.717c-1.628 0-2.07 2.18-2.07 5.076 0 2.896.718 5.076 2.208 5.076 1.49 0 2.069-2.18 2.069-5.076 0-2.897-.745-5.076-2.207-5.076zm27.256 5.186c0-3.034 1.904-5.876 5.683-5.876 3.063 0 4.525 2.262 4.552 5.242h-6.841c-.083 2.703 1.296 4.69 3.917 4.69 1.131 0 1.766-.276 2.483-.8l.303.386C53.493 15.007 51.892 16 49.796 16c-3.338-.028-5.656-2.345-5.656-5.683zm3.394-1.407l3.42-.082c.028-1.518-.22-3.697-1.462-3.697-1.213.028-1.93 2.069-1.958 3.78zm15.614-1.076l-.552.138c-.579-1.93-1.49-2.758-2.813-2.758-.883 0-1.518.662-1.518 1.627 0 .966.718 1.462 2.787 2.262s2.648 1.6 2.648 3.145c0 2.318-1.766 3.724-4.69 3.724-1.324 0-2.62-.248-3.862-.69l-.083-3.2.552-.137c.8 2.234 1.848 3.034 3.228 3.034 1.379 0 1.82-.827 1.82-1.71s-.496-1.38-2.372-2.041c-1.876-.662-2.98-1.38-2.98-3.31 0-1.932 1.656-3.504 4.414-3.504 1.27 0 2.483.22 3.31.58l.111 2.84zM30.87 7.752c-1.49-.993-3.09-.552-3.394-.028-.11 1.959-.082 3.945.028 5.904.083.91.359 1.324 1.02 1.406l.884.056v.634h-6.787v-.634l.469-.056c.69-.082.938-.496 1.02-1.406a49.13 49.13 0 000-6.373c-.082-.91-.358-1.324-1.02-1.407l-.47-.055v-.441l4.884-.938-.055 2.538c1.13-2.621 3.393-2.98 4.607-2.235L30.87 7.752z" fill="currentColor"></path></svg>