<svg width="52" height="57" viewBox="0 0 52 57" fill="none" xmlns="http://www.w3.org/2000/svg">
<g filter="url(#filter0_b_536_160)">
<rect x="19.0176" y="5.56946" width="33.8405" height="43.5008" rx="4" transform="rotate(15 19.0176 5.56946)" fill="#9263CD"/>
</g>
<rect x="5.16992" y="7.64221" width="24.7505" height="5.2501" fill="#EEF3F6"/>
<rect x="5.16992" y="16.6423" width="16.5003" height="5.2501" fill="#EEF3F6"/>
<g filter="url(#filter1_b_536_160)">
<path fill-rule="evenodd" clip-rule="evenodd" d="M0.669922 4.96703C0.669922 2.71644 2.49929 0.891968 4.75593 0.891968L31.315 0.891968C33.5716 0.891968 35.401 2.71644 35.401 4.96703V39.7507C35.401 40.3201 35.232 40.8766 34.9154 41.3503C34.0479 42.648 32.3032 43.0227 30.9771 42.1961L27.503 40.0306C26.1007 39.1565 24.3082 39.2116 22.9625 40.1702L20.4104 41.9883C18.9897 43.0004 17.0812 43.0004 15.6605 41.9883L13.1084 40.1702C11.7627 39.2116 9.97025 39.1565 8.56787 40.0306L5.09379 42.1961C3.7677 43.0227 2.02297 42.648 1.15553 41.3503C0.838891 40.8766 0.669922 40.3201 0.669922 39.7507L0.669922 4.96703ZM6.79893 10.0609C6.79893 8.93557 7.71362 8.02333 8.84194 8.02333L27.229 8.02333C28.3573 8.02333 29.272 8.93557 29.272 10.0609C29.272 11.1862 28.3573 12.0984 27.229 12.0984L8.84194 12.0984C7.71362 12.0984 6.79893 11.1862 6.79893 10.0609ZM8.84194 17.1922C7.71362 17.1922 6.79893 18.1045 6.79893 19.2298C6.79893 20.3551 7.71362 21.2673 8.84194 21.2673H19.057C20.1853 21.2673 21.1 20.3551 21.1 19.2298C21.1 18.1045 20.1853 17.1922 19.057 17.1922H8.84194Z" fill="#65C8FF" fill-opacity="0.4"/>
</g>
<defs>
<filter id="filter0_b_536_160" x="-2.43466" y="-4.6235" width="64.3322" height="71.163" filterUnits="userSpaceOnUse" color-interpolation-filters="sRGB">
<feFlood flood-opacity="0" result="BackgroundImageFix"/>
<feGaussianBlur in="BackgroundImageFix" stdDeviation="5.54545"/>
<feComposite in2="SourceAlpha" operator="in" result="effect1_backgroundBlur_536_160"/>
<feBlend mode="normal" in="SourceGraphic" in2="effect1_backgroundBlur_536_160" result="shape"/>
</filter>
<filter id="filter1_b_536_160" x="-12.3301" y="-12.108" width="60.7305" height="67.8553" filterUnits="userSpaceOnUse" color-interpolation-filters="sRGB">
<feFlood flood-opacity="0" result="BackgroundImageFix"/>
<feGaussianBlur in="BackgroundImageFix" stdDeviation="6.5"/>
<feComposite in2="SourceAlpha" operator="in" result="effect1_backgroundBlur_536_160"/>
<feBlend mode="normal" in="SourceGraphic" in2="effect1_backgroundBlur_536_160" result="shape"/>
</filter>
</defs>
</svg>
