<svg width="64" height="65" viewBox="0 0 64 65" fill="none" xmlns="http://www.w3.org/2000/svg">
<path d="M48.2282 23.3432L46.64 21.7556C46.0224 21.1382 45.6695 20.3003 45.6695 19.4205V17.1471C45.6695 13.4868 42.6916 10.5123 39.03 10.5123H36.758C35.8757 10.5123 35.0375 10.1573 34.4199 9.53986L32.8097 7.93241C30.2068 5.35256 25.9937 5.35256 23.413 7.95226L21.8248 9.53986C21.2072 10.1573 20.369 10.5123 19.4866 10.5123H17.2147C13.553 10.5123 10.5752 13.4868 10.5752 17.1471V19.3962C10.5752 20.3003 10.2223 21.1382 9.60465 21.7556L7.99442 23.3674C5.41363 25.9671 5.43569 30.1809 8.01648 32.7585L9.60465 34.3241C10.2223 34.9635 10.5752 35.8014 10.5752 36.6856V38.9546C10.5752 42.6149 13.553 45.5938 17.2147 45.5938H19.4866C20.369 45.5938 21.2072 45.9444 21.8248 46.5618L23.435 48.1737C24.7364 49.4526 26.4349 50.0898 28.1334 50.0898C29.8318 50.0898 31.5303 49.4526 32.8317 48.1494L34.4199 46.5618C35.0375 45.9444 35.8757 45.5938 36.758 45.5938H39.03C42.6916 45.5938 45.6695 42.6149 45.6695 38.9546V36.6856C45.6695 35.8014 46.0224 34.9635 46.64 34.3461L48.2061 32.7806C48.2282 32.7585 48.2503 32.7387 48.2723 32.7144C49.5076 31.4598 50.1914 29.7818 50.1693 28.0178C50.1693 26.2538 49.4855 24.578 48.2282 23.3432Z" fill="url(#paint0_linear_725_1857)"/>
<g opacity="0.5" filter="url(#filter0_f_725_1857)">
<path d="M-nan -nanL41.4334 24.9319L40.3819 23.8808C39.973 23.472 39.7393 22.9172 39.7393 22.3347V20.8296C39.7393 18.4061 37.7677 16.4367 35.3434 16.4367H33.8391C33.255 16.4367 32.7 16.2017 32.2911 15.7929L31.225 14.7286C29.5017 13.0206 26.7122 13.0206 25.0035 14.7418L23.952 15.7929C23.5431 16.2017 22.9881 16.4367 22.404 16.4367H20.8997C18.4754 16.4367 16.5038 18.4061 16.5038 20.8296V22.3187C16.5038 22.9172 16.2702 23.472 15.8612 23.8808L14.7951 24.948C13.0864 26.6692 13.101 29.4591 14.8097 31.1657L15.8612 32.2022C16.2702 32.6256 16.5038 33.1803 16.5038 33.7658V35.268C16.5038 37.6914 18.4754 39.6638 20.8997 39.6638H22.404C22.9881 39.6638 23.5431 39.8959 23.952 40.3047L25.0181 41.3719C25.8798 42.2186 27.0043 42.6405 28.1289 42.6405C29.2534 42.6405 30.3779 42.2186 31.2396 41.3558L32.2911 40.3047C32.7 39.8959 33.255 39.6638 33.8391 39.6638H35.3434C37.7677 39.6638 39.7393 37.6914 39.7393 35.268V33.7658C39.7393 33.1803 39.973 32.6256 40.3819 32.2168L41.4188 31.1803C41.4334 31.1657 41.448 31.1525 41.4626 31.1365C42.2804 30.3058 42.7332 29.1948 42.7186 28.0269C42.7186 26.859 42.2658 25.7494 41.4334 24.9319L-nan -nanZ" fill="#8237FF"/>
</g>
<g filter="url(#filter1_b_725_1857)">
<mask id="path-3-outside-1_725_1857" maskUnits="userSpaceOnUse" x="12.7197" y="12.6519" width="46" height="46" fill="black">
<rect fill="white" x="12.7197" y="12.6519" width="46" height="46"/>
<path d="M55.878 30.995L54.2899 29.4074C53.6722 28.79 53.3193 27.9521 53.3193 27.0723V24.799C53.3193 21.1387 50.3415 18.1641 46.6799 18.1641H44.4079C43.5256 18.1641 42.6874 17.8091 42.0697 17.1917L40.4595 15.5843C37.8567 13.0044 33.6436 13.0044 31.0628 15.6041L29.4746 17.1917C28.857 17.8091 28.0188 18.1641 27.1365 18.1641H24.8645C21.2029 18.1641 18.225 21.1387 18.225 24.799V27.0481C18.225 27.9521 17.8721 28.79 17.2545 29.4074L15.6443 31.0193C13.0635 33.619 13.0855 37.8327 15.6663 40.4104L17.2545 41.9759C17.8721 42.6154 18.225 43.4533 18.225 44.3375V46.6064C18.225 50.2667 21.2029 53.2457 24.8645 53.2457H27.1365C28.0188 53.2457 28.857 53.5963 29.4746 54.2137L31.0849 55.8255C32.3863 57.1044 34.0847 57.7417 35.7832 57.7417C37.4817 57.7417 39.1801 57.1044 40.4816 55.8013L42.0697 54.2137C42.6874 53.5963 43.5256 53.2457 44.4079 53.2457H46.6799C50.3415 53.2457 53.3193 50.2667 53.3193 46.6064V44.3375C53.3193 43.4533 53.6722 42.6154 54.2899 41.998L55.856 40.4324C55.878 40.4104 55.9001 40.3905 55.9222 40.3663C57.1574 39.1116 57.8412 37.4336 57.8191 35.6696C57.8191 33.9056 57.1353 32.2298 55.878 30.995Z"/>
</mask>
<path d="M55.878 30.995L54.2899 29.4074C53.6722 28.79 53.3193 27.9521 53.3193 27.0723V24.799C53.3193 21.1387 50.3415 18.1641 46.6799 18.1641H44.4079C43.5256 18.1641 42.6874 17.8091 42.0697 17.1917L40.4595 15.5843C37.8567 13.0044 33.6436 13.0044 31.0628 15.6041L29.4746 17.1917C28.857 17.8091 28.0188 18.1641 27.1365 18.1641H24.8645C21.2029 18.1641 18.225 21.1387 18.225 24.799V27.0481C18.225 27.9521 17.8721 28.79 17.2545 29.4074L15.6443 31.0193C13.0635 33.619 13.0855 37.8327 15.6663 40.4104L17.2545 41.9759C17.8721 42.6154 18.225 43.4533 18.225 44.3375V46.6064C18.225 50.2667 21.2029 53.2457 24.8645 53.2457H27.1365C28.0188 53.2457 28.857 53.5963 29.4746 54.2137L31.0849 55.8255C32.3863 57.1044 34.0847 57.7417 35.7832 57.7417C37.4817 57.7417 39.1801 57.1044 40.4816 55.8013L42.0697 54.2137C42.6874 53.5963 43.5256 53.2457 44.4079 53.2457H46.6799C50.3415 53.2457 53.3193 50.2667 53.3193 46.6064V44.3375C53.3193 43.4533 53.6722 42.6154 54.2899 41.998L55.856 40.4324C55.878 40.4104 55.9001 40.3905 55.9222 40.3663C57.1574 39.1116 57.8412 37.4336 57.8191 35.6696C57.8191 33.9056 57.1353 32.2298 55.878 30.995Z" fill="#3EA0FE" fill-opacity="0.35"/>
<path d="M54.2899 29.4074L54.6716 29.0255L54.2899 29.4074ZM42.0697 17.1917L42.4515 16.8098L42.4512 16.8095L42.0697 17.1917ZM40.4595 15.5843L40.841 15.2021L40.8396 15.2007L40.4595 15.5843ZM31.0628 15.6041L31.4446 15.986L31.446 15.9846L31.0628 15.6041ZM29.4746 17.1917L29.8564 17.5736L29.4746 17.1917ZM17.2545 29.4074L16.8727 29.0255L16.8725 29.0258L17.2545 29.4074ZM15.6443 31.0193L15.2622 30.6376L15.261 30.6388L15.6443 31.0193ZM15.6663 40.4104L15.2847 40.7924L15.2872 40.7949L15.6663 40.4104ZM17.2545 41.9759L17.643 41.6006L17.6336 41.5913L17.2545 41.9759ZM29.4746 54.2137L29.8567 53.832L29.8564 53.8318L29.4746 54.2137ZM31.0849 55.8255L30.7028 56.2072L30.7064 56.2107L31.0849 55.8255ZM40.4816 55.8013L40.0998 55.4193L40.0995 55.4197L40.4816 55.8013ZM42.0697 54.2137L42.4515 54.5956L42.0697 54.2137ZM54.2899 41.998L54.6716 42.3799L54.2899 41.998ZM55.856 40.4324L55.4742 40.0505H55.4742L55.856 40.4324ZM55.9222 40.3663L55.5374 39.9874C55.5324 39.9925 55.5275 39.9977 55.5227 40.0029L55.9222 40.3663ZM57.8191 35.6696H57.2791L57.2792 35.6764L57.8191 35.6696ZM55.878 30.995L55.4963 31.3769L55.4997 31.3803L55.878 30.995ZM56.2598 30.6131L54.6716 29.0255L53.9081 29.7893L55.4963 31.3769L56.2598 30.6131ZM54.6716 29.0255C54.154 28.5081 53.8593 27.807 53.8593 27.0723H52.7793C52.7793 28.0972 53.1905 29.072 53.9081 29.7893L54.6716 29.0255ZM53.8593 27.0723V24.799H52.7793V27.0723H53.8593ZM53.8593 24.799C53.8593 20.84 50.6393 17.6241 46.6799 17.6241V18.7041C50.0437 18.7041 52.7793 21.4373 52.7793 24.799H53.8593ZM46.6799 17.6241H44.4079V18.7041H46.6799V17.6241ZM44.4079 17.6241C43.6713 17.6241 42.9697 17.3278 42.4515 16.8098L41.688 17.5736C42.4051 18.2905 43.3799 18.7041 44.4079 18.7041V17.6241ZM42.4512 16.8095L40.841 15.2021L40.078 15.9664L41.6882 17.5739L42.4512 16.8095ZM40.8396 15.2007C38.027 12.4129 33.4722 12.4106 30.6796 15.2237L31.446 15.9846C33.815 13.5983 37.6863 13.5959 40.0794 15.9678L40.8396 15.2007ZM30.681 15.2222L29.0929 16.8098L29.8564 17.5736L31.4446 15.986L30.681 15.2222ZM29.0929 16.8098C28.5747 17.3278 27.8731 17.6241 27.1365 17.6241V18.7041C28.1645 18.7041 29.1393 18.2905 29.8564 17.5736L29.0929 16.8098ZM27.1365 17.6241H24.8645V18.7041H27.1365V17.6241ZM24.8645 17.6241C20.9051 17.6241 17.685 20.84 17.685 24.799H18.765C18.765 21.4373 21.5007 18.7041 24.8645 18.7041V17.6241ZM17.685 24.799V27.0481H18.765V24.799H17.685ZM17.685 27.0481C17.685 27.8091 17.3889 28.5096 16.8727 29.0255L17.6363 29.7893C18.3554 29.0705 18.765 28.0951 18.765 27.0481H17.685ZM16.8725 29.0258L15.2622 30.6376L16.0263 31.4009L17.6365 29.7891L16.8725 29.0258ZM15.261 30.6388C12.4698 33.4505 12.4942 38.0053 15.2847 40.7924L16.0479 40.0283C13.6769 37.6601 13.6572 33.7874 16.0275 31.3997L15.261 30.6388ZM15.2872 40.7949L16.8754 42.3605L17.6336 41.5913L16.0454 40.0258L15.2872 40.7949ZM16.8661 42.3511C17.3909 42.8945 17.685 43.5995 17.685 44.3375H18.765C18.765 43.307 18.3533 42.3363 17.6429 41.6008L16.8661 42.3511ZM17.685 44.3375V46.6064H18.765V44.3375H17.685ZM17.685 46.6064C17.685 50.5649 20.9046 53.7857 24.8645 53.7857V52.7057C21.5012 52.7057 18.765 49.9685 18.765 46.6064H17.685ZM24.8645 53.7857H27.1365V52.7057H24.8645V53.7857ZM27.1365 53.7857C27.8749 53.7857 28.576 54.0789 29.0929 54.5956L29.8564 53.8318C29.138 53.1136 28.1627 52.7057 27.1365 52.7057V53.7857ZM29.0926 54.5953L30.7028 56.2072L31.4669 55.4439L29.8567 53.832L29.0926 54.5953ZM30.7064 56.2107C32.1135 57.5934 33.9499 58.2817 35.7832 58.2817V57.2017C34.2196 57.2017 32.6591 56.6154 31.4633 55.4404L30.7064 56.2107ZM35.7832 58.2817C37.6171 58.2817 39.4555 57.5929 40.8637 56.1828L40.0995 55.4197C38.9048 56.616 37.3462 57.2017 35.7832 57.2017V58.2817ZM40.8633 56.1832L42.4515 54.5956L41.688 53.8318L40.0998 55.4193L40.8633 56.1832ZM42.4515 54.5956C42.9683 54.0789 43.6694 53.7857 44.4079 53.7857V52.7057C43.3817 52.7057 42.4064 53.1136 41.688 53.8318L42.4515 54.5956ZM44.4079 53.7857H46.6799V52.7057H44.4079V53.7857ZM46.6799 53.7857C50.6398 53.7857 53.8593 50.5649 53.8593 46.6064H52.7793C52.7793 49.9685 50.0432 52.7057 46.6799 52.7057V53.7857ZM53.8593 46.6064V44.3375H52.7793V46.6064H53.8593ZM53.8593 44.3375C53.8593 43.598 54.1543 42.897 54.6716 42.3799L53.9081 41.6161C53.1902 42.3337 52.7793 43.3085 52.7793 44.3375H53.8593ZM54.6716 42.3799L56.2378 40.8143L55.4742 40.0505L53.9081 41.6161L54.6716 42.3799ZM56.2378 40.8143C56.246 40.8061 56.2479 40.8045 56.266 40.7869C56.28 40.7732 56.2999 40.7535 56.3217 40.7296L55.5227 40.0029C55.5224 40.0033 55.5202 40.0056 55.5122 40.0134C55.5074 40.0181 55.5042 40.0212 55.4969 40.0283C55.4907 40.0343 55.4828 40.042 55.4742 40.0505L56.2378 40.8143ZM56.307 40.7451C57.6421 39.389 58.383 37.5726 58.3591 35.6629L57.2792 35.6764C57.2994 37.2946 56.6727 38.8343 55.5374 39.9874L56.307 40.7451ZM58.3591 35.6696C58.3591 33.7648 57.62 31.9489 56.2564 30.6097L55.4997 31.3803C56.6507 32.5107 57.2791 34.0464 57.2791 35.6696H58.3591Z" fill="url(#paint1_linear_725_1857)" mask="url(#path-3-outside-1_725_1857)"/>
</g>
<g filter="url(#filter2_bd_725_1857)">
<mask id="path-5-inside-2_725_1857" fill="white">
<path fill-rule="evenodd" clip-rule="evenodd" d="M31.4594 42.7254C31.1065 43.1003 30.6212 43.2987 30.0918 43.2987C29.5845 43.2987 29.0992 43.1003 28.7463 42.7254C27.9963 41.9757 27.9963 40.7409 28.7463 39.9912L40.0841 28.6575C40.8341 27.9101 42.0472 27.9101 42.7972 28.6575C43.5472 29.4072 43.5472 30.6442 42.7972 31.3939L31.4594 42.7254ZM41.4517 43.2988C40.3708 43.2988 39.5105 42.4389 39.5105 41.3584C39.5105 40.3022 40.3708 39.4401 41.4517 39.4401C42.5104 39.4401 43.3707 40.3022 43.3707 41.3584C43.3707 42.4389 42.5104 43.2988 41.4517 43.2988ZM32.0332 30.025C32.0332 28.9666 31.173 28.1066 30.1142 28.1066C29.0554 28.1066 28.1731 28.9666 28.1731 30.025C28.1731 31.1076 29.0554 31.9654 30.1142 31.9654C31.173 31.9654 32.0332 31.1076 32.0332 30.025Z"/>
</mask>
<path fill-rule="evenodd" clip-rule="evenodd" d="M31.4594 42.7254C31.1065 43.1003 30.6212 43.2987 30.0918 43.2987C29.5845 43.2987 29.0992 43.1003 28.7463 42.7254C27.9963 41.9757 27.9963 40.7409 28.7463 39.9912L40.0841 28.6575C40.8341 27.9101 42.0472 27.9101 42.7972 28.6575C43.5472 29.4072 43.5472 30.6442 42.7972 31.3939L31.4594 42.7254ZM41.4517 43.2988C40.3708 43.2988 39.5105 42.4389 39.5105 41.3584C39.5105 40.3022 40.3708 39.4401 41.4517 39.4401C42.5104 39.4401 43.3707 40.3022 43.3707 41.3584C43.3707 42.4389 42.5104 43.2988 41.4517 43.2988ZM32.0332 30.025C32.0332 28.9666 31.173 28.1066 30.1142 28.1066C29.0554 28.1066 28.1731 28.9666 28.1731 30.025C28.1731 31.1076 29.0554 31.9654 30.1142 31.9654C31.173 31.9654 32.0332 31.1076 32.0332 30.025Z" fill="url(#paint2_linear_725_1857)"/>
<path d="M31.4594 42.7254L31.3066 42.5726L31.3021 42.5774L31.4594 42.7254ZM28.7463 42.7254L28.9036 42.5773L28.899 42.5727L28.7463 42.7254ZM28.7463 39.9912L28.899 40.144L28.7463 39.9912ZM40.0841 28.6575L39.9316 28.5046L39.9314 28.5048L40.0841 28.6575ZM42.7972 28.6575L42.9499 28.5048L42.9497 28.5046L42.7972 28.6575ZM42.7972 31.3939L42.9499 31.5467L42.9499 31.5467L42.7972 31.3939ZM30.0918 43.5147C30.6766 43.5147 31.2202 43.2947 31.6167 42.8735L31.3021 42.5774C30.9928 42.9059 30.5658 43.0827 30.0918 43.0827V43.5147ZM28.589 42.8735C28.9846 43.2937 29.5277 43.5147 30.0918 43.5147V43.0827C29.6412 43.0827 29.2138 42.9069 28.9035 42.5774L28.589 42.8735ZM28.5936 39.8385C27.7592 40.6725 27.7592 42.0441 28.5936 42.8782L28.899 42.5727C28.2334 41.9073 28.2334 40.8093 28.899 40.144L28.5936 39.8385ZM39.9314 28.5048L28.5936 39.8385L28.899 40.144L40.2368 28.8103L39.9314 28.5048ZM42.9497 28.5046C42.1154 27.673 40.7659 27.673 39.9316 28.5046L40.2366 28.8105C40.9022 28.1471 41.9791 28.1471 42.6447 28.8105L42.9497 28.5046ZM42.9499 31.5467C43.7843 30.7127 43.7843 29.3388 42.9499 28.5048L42.6445 28.8103C43.3101 29.4756 43.3101 30.5758 42.6445 31.2412L42.9499 31.5467ZM31.6121 42.8782L42.9499 31.5467L42.6445 31.2412L31.3067 42.5727L31.6121 42.8782ZM39.2945 41.3584C39.2945 42.5582 40.2516 43.5148 41.4517 43.5148V43.0828C40.49 43.0828 39.7265 42.3195 39.7265 41.3584H39.2945ZM41.4517 39.2241C40.253 39.2241 39.2945 40.1814 39.2945 41.3584H39.7265C39.7265 40.423 40.4886 39.6561 41.4517 39.6561V39.2241ZM43.5867 41.3584C43.5867 40.183 42.6298 39.2241 41.4517 39.2241V39.6561C42.3911 39.6561 43.1547 40.4214 43.1547 41.3584H43.5867ZM41.4517 43.5148C42.6313 43.5148 43.5867 42.5566 43.5867 41.3584H43.1547C43.1547 42.3211 42.3896 43.0828 41.4517 43.0828V43.5148ZM30.1142 28.3226C31.0538 28.3226 31.8172 29.0859 31.8172 30.025H32.2492C32.2492 28.8472 31.2922 27.8906 30.1142 27.8906V28.3226ZM28.3891 30.025C28.3891 29.0891 29.1714 28.3226 30.1142 28.3226V27.8906C28.9394 27.8906 27.9571 28.844 27.9571 30.025H28.3891ZM30.1142 31.7494C29.1729 31.7494 28.3891 30.9865 28.3891 30.025H27.9571C27.9571 31.2287 28.938 32.1814 30.1142 32.1814V31.7494ZM31.8172 30.025C31.8172 30.9897 31.0523 31.7494 30.1142 31.7494V32.1814C31.2936 32.1814 32.2492 31.2255 32.2492 30.025H31.8172Z" fill="url(#paint3_linear_725_1857)" mask="url(#path-5-inside-2_725_1857)"/>
</g>
<defs>
<filter id="filter0_f_725_1857" x="0.560875" y="0.48922" width="55.1181" height="55.1114" filterUnits="userSpaceOnUse" color-interpolation-filters="sRGB">
<feFlood flood-opacity="0" result="BackgroundImageFix"/>
<feBlend mode="normal" in="SourceGraphic" in2="BackgroundImageFix" result="shape"/>
<feGaussianBlur stdDeviation="6.48" result="effect1_foregroundBlur_725_1857"/>
</filter>
<filter id="filter1_b_725_1857" x="0.219688" y="0.151817" width="71.1" height="71.0899" filterUnits="userSpaceOnUse" color-interpolation-filters="sRGB">
<feFlood flood-opacity="0" result="BackgroundImageFix"/>
<feGaussianBlur in="BackgroundImageFix" stdDeviation="6.48"/>
<feComposite in2="SourceAlpha" operator="in" result="effect1_backgroundBlur_725_1857"/>
<feBlend mode="normal" in="SourceGraphic" in2="effect1_backgroundBlur_725_1857" result="shape"/>
</filter>
<filter id="filter2_bd_725_1857" x="20.0731" y="19.9969" width="31.3976" height="31.4019" filterUnits="userSpaceOnUse" color-interpolation-filters="sRGB">
<feFlood flood-opacity="0" result="BackgroundImageFix"/>
<feGaussianBlur in="BackgroundImageFix" stdDeviation="4.05"/>
<feComposite in2="SourceAlpha" operator="in" result="effect1_backgroundBlur_725_1857"/>
<feColorMatrix in="SourceAlpha" type="matrix" values="0 0 0 0 0 0 0 0 0 0 0 0 0 0 0 0 0 0 127 0" result="hardAlpha"/>
<feOffset dx="2.7" dy="2.7"/>
<feGaussianBlur stdDeviation="2.7"/>
<feColorMatrix type="matrix" values="0 0 0 0 0.247059 0 0 0 0 0.683765 0 0 0 0 1 0 0 0 0.5 0"/>
<feBlend mode="normal" in2="effect1_backgroundBlur_725_1857" result="effect2_dropShadow_725_1857"/>
<feBlend mode="normal" in="SourceGraphic" in2="effect2_dropShadow_725_1857" result="shape"/>
</filter>
<linearGradient id="paint0_linear_725_1857" x1="28.1198" y1="6" x2="28.1198" y2="50.0898" gradientUnits="userSpaceOnUse">
<stop stop-color="#AF84E7"/>
<stop offset="1" stop-color="#9350E7"/>
</linearGradient>
<linearGradient id="paint1_linear_725_1857" x1="20.7397" y1="18.7884" x2="48.8629" y2="53.6277" gradientUnits="userSpaceOnUse">
<stop stop-color="white" stop-opacity="0.25"/>
<stop offset="1" stop-color="white" stop-opacity="0.06"/>
</linearGradient>
<linearGradient id="paint2_linear_725_1857" x1="42.2932" y1="30.8421" x2="25.3645" y2="31.3939" gradientUnits="userSpaceOnUse">
<stop stop-color="white"/>
<stop offset="1" stop-color="white" stop-opacity="0.2"/>
</linearGradient>
<linearGradient id="paint3_linear_725_1857" x1="30.5923" y1="29.868" x2="40.2901" y2="41.8755" gradientUnits="userSpaceOnUse">
<stop stop-color="white" stop-opacity="0.25"/>
<stop offset="1" stop-color="white" stop-opacity="0"/>
</linearGradient>
</defs>
</svg>
