<svg width="65" height="65" viewBox="0 0 65 65" fill="none" xmlns="http://www.w3.org/2000/svg">
<path d="M42.5911 11.2096L27.8663 7.26414C22.5253 5.83301 18.5776 8.12708 17.1417 13.4857L12.2787 31.6347C10.8193 37.0812 13.11 40.9715 18.451 42.4026L33.1758 46.3481C38.6029 47.8023 42.4439 45.5549 43.9033 40.1085L48.7663 21.9595C50.2022 16.6009 48.0182 12.6638 42.5911 11.2096Z" fill="url(#paint0_linear_725_1872)"/>
<g filter="url(#filter0_f_725_1872)">
<path d="M26.3441 26.2997C23.3052 25.9764 20.9996 23.4126 20.9996 20.3565C20.9996 17.3003 23.3052 14.7365 26.3442 14.4132L30.7143 13.9484C34.5216 13.5433 37.8403 16.5277 37.8403 20.3565C37.8403 24.1853 34.5216 27.1697 30.7143 26.7646L26.3441 26.2997Z" fill="#6E1DF2" fill-opacity="0.6"/>
</g>
<g filter="url(#filter1_b_725_1872)">
<path d="M54.0923 29.7299C54.0923 22.3228 49.6019 17.96 42.003 17.96H22.0914C14.4905 17.96 10.0001 22.3228 10.0001 29.7299V45.8628C10.0001 53.2699 14.4905 57.65 22.0914 57.65H42.0108C49.6098 57.65 54.1001 53.2699 54.1001 45.8628C54.1001 38.4556 54.0923 30.5483 54.0923 29.7299Z" fill="#3EA0FE" fill-opacity="0.35"/>
<path d="M54.3623 29.7299C54.3623 25.9713 53.2217 22.9524 51.0855 20.8738C48.9503 18.7961 45.8534 17.69 42.003 17.69H22.0914C18.24 17.69 15.1426 18.7961 13.0071 20.8738C10.8707 22.9524 9.73012 25.9713 9.73012 29.7299V45.8628C9.73012 49.6214 10.8706 52.6445 13.0069 54.7274C15.1423 56.8094 18.2397 57.92 22.0914 57.92H42.0108C45.8615 57.92 48.9584 56.8094 51.0936 54.7273C53.2296 52.6445 54.3701 49.6214 54.3701 45.8628C54.3701 42.1591 54.3682 38.3304 54.3662 35.3254C54.3652 33.8222 54.3642 32.5252 54.3635 31.553C54.3628 30.5815 54.3623 29.9344 54.3623 29.7299Z" stroke="url(#paint1_linear_725_1872)" stroke-width="0.54" stroke-linecap="round" stroke-linejoin="round"/>
</g>
<g filter="url(#filter2_b_725_1872)">
<path d="M38.1865 38.7946C38.7817 41.4912 41.1551 43.3884 43.8647 43.3391H56.0182C57.1456 43.3391 58.0601 42.4089 58.0601 41.2592V34.0823C58.0577 32.9351 57.1456 32.0025 56.0182 32H43.647C40.5648 32.0099 38.0752 34.5584 38.0801 37.6991C38.0801 38.0667 38.1164 38.4343 38.1865 38.7946Z" fill="#3EA0FE" fill-opacity="0.35"/>
<path d="M37.9215 38.8462L37.9214 38.8462L37.9229 38.8527C38.5449 41.6708 41.0268 43.6596 43.8672 43.6091H56.0182C57.2992 43.6091 58.3301 42.5535 58.3301 41.2592V34.0823L58.3301 34.0817C58.3274 32.791 57.3 31.7328 56.0187 31.73H56.0182L43.647 31.73L43.6461 31.73C40.4103 31.7404 37.8051 34.4146 37.8101 37.6993C37.8101 38.0846 37.8481 38.4694 37.9215 38.8462Z" stroke="url(#paint2_linear_725_1872)" stroke-width="0.54" stroke-linecap="round" stroke-linejoin="round"/>
</g>
<g filter="url(#filter3_bd_725_1872)">
<circle cx="43.7502" cy="37.67" r="2.43" fill="url(#paint3_linear_725_1872)"/>
<circle cx="43.7502" cy="37.67" r="2.376" stroke="url(#paint4_linear_725_1872)" stroke-opacity="0.5" stroke-width="0.108"/>
</g>
<g filter="url(#filter4_bd_725_1872)">
<path d="M32.9027 29.7991H20.4665C19.5355 29.7953 18.7828 29.0557 18.7868 28.148C18.7907 27.2441 19.5414 26.5121 20.4665 26.5083H32.9105C33.8415 26.5045 34.602 27.2383 34.6059 28.1461C34.6098 29.0557 33.8572 29.7953 32.9262 29.7991H32.9105H32.9027Z" fill="url(#paint5_linear_725_1872)"/>
<path d="M32.9105 26.5623L32.9107 26.5623C33.8133 26.5586 34.5481 27.2697 34.5519 28.1463C34.5557 29.0248 33.8285 29.7413 32.9261 29.7451H32.9105H32.9027H20.4666C19.5641 29.7413 18.837 29.0248 18.8408 28.1482C18.8445 27.2752 19.5699 26.5661 20.4666 26.5623L32.9105 26.5623Z" stroke="url(#paint6_linear_725_1872)" stroke-opacity="0.5" stroke-width="0.108"/>
</g>
<defs>
<filter id="filter0_f_725_1872" x="8.03964" y="0.951379" width="42.7607" height="38.8101" filterUnits="userSpaceOnUse" color-interpolation-filters="sRGB">
<feFlood flood-opacity="0" result="BackgroundImageFix"/>
<feBlend mode="normal" in="SourceGraphic" in2="BackgroundImageFix" result="shape"/>
<feGaussianBlur stdDeviation="6.48" result="effect1_foregroundBlur_725_1872"/>
</filter>
<filter id="filter1_b_725_1872" x="-3.49992" y="4.45992" width="71.1001" height="66.69" filterUnits="userSpaceOnUse" color-interpolation-filters="sRGB">
<feFlood flood-opacity="0" result="BackgroundImageFix"/>
<feGaussianBlur in="BackgroundImageFix" stdDeviation="6.48"/>
<feComposite in2="SourceAlpha" operator="in" result="effect1_backgroundBlur_725_1872"/>
<feBlend mode="normal" in="SourceGraphic" in2="effect1_backgroundBlur_725_1872" result="shape"/>
</filter>
<filter id="filter2_b_725_1872" x="24.58" y="18.5" width="46.9801" height="38.3399" filterUnits="userSpaceOnUse" color-interpolation-filters="sRGB">
<feFlood flood-opacity="0" result="BackgroundImageFix"/>
<feGaussianBlur in="BackgroundImageFix" stdDeviation="6.48"/>
<feComposite in2="SourceAlpha" operator="in" result="effect1_backgroundBlur_725_1872"/>
<feBlend mode="normal" in="SourceGraphic" in2="effect1_backgroundBlur_725_1872" result="shape"/>
</filter>
<filter id="filter3_bd_725_1872" x="33.2202" y="27.14" width="21.06" height="21.0601" filterUnits="userSpaceOnUse" color-interpolation-filters="sRGB">
<feFlood flood-opacity="0" result="BackgroundImageFix"/>
<feGaussianBlur in="BackgroundImageFix" stdDeviation="4.05"/>
<feComposite in2="SourceAlpha" operator="in" result="effect1_backgroundBlur_725_1872"/>
<feColorMatrix in="SourceAlpha" type="matrix" values="0 0 0 0 0 0 0 0 0 0 0 0 0 0 0 0 0 0 127 0" result="hardAlpha"/>
<feOffset dx="2.7" dy="2.7"/>
<feGaussianBlur stdDeviation="2.7"/>
<feColorMatrix type="matrix" values="0 0 0 0 0.15375 0 0 0 0 0.522433 0 0 0 0 0.9 0 0 0 0.5 0"/>
<feBlend mode="normal" in2="effect1_backgroundBlur_725_1872" result="effect2_dropShadow_725_1872"/>
<feBlend mode="normal" in="SourceGraphic" in2="effect2_dropShadow_725_1872" result="shape"/>
</filter>
<filter id="filter4_bd_725_1872" x="10.6867" y="18.4083" width="32.0192" height="19.4908" filterUnits="userSpaceOnUse" color-interpolation-filters="sRGB">
<feFlood flood-opacity="0" result="BackgroundImageFix"/>
<feGaussianBlur in="BackgroundImageFix" stdDeviation="4.05"/>
<feComposite in2="SourceAlpha" operator="in" result="effect1_backgroundBlur_725_1872"/>
<feColorMatrix in="SourceAlpha" type="matrix" values="0 0 0 0 0 0 0 0 0 0 0 0 0 0 0 0 0 0 127 0" result="hardAlpha"/>
<feOffset dx="2.7" dy="2.7"/>
<feGaussianBlur stdDeviation="2.7"/>
<feColorMatrix type="matrix" values="0 0 0 0 0.15375 0 0 0 0 0.522433 0 0 0 0 0.9 0 0 0 0.5 0"/>
<feBlend mode="normal" in2="effect1_backgroundBlur_725_1872" result="effect2_dropShadow_725_1872"/>
<feBlend mode="normal" in="SourceGraphic" in2="effect2_dropShadow_725_1872" result="shape"/>
</filter>
<linearGradient id="paint0_linear_725_1872" x1="35.2278" y1="9.23665" x2="25.8125" y2="44.3751" gradientUnits="userSpaceOnUse">
<stop stop-color="#AF84E7"/>
<stop offset="1" stop-color="#9350E7"/>
</linearGradient>
<linearGradient id="paint1_linear_725_1872" x1="17.0201" y1="22.5839" x2="49.2242" y2="59.0344" gradientUnits="userSpaceOnUse">
<stop stop-color="white" stop-opacity="0.25"/>
<stop offset="1" stop-color="white" stop-opacity="0"/>
</linearGradient>
<linearGradient id="paint2_linear_725_1872" x1="41.2606" y1="33.3211" x2="49.1449" y2="47.4719" gradientUnits="userSpaceOnUse">
<stop stop-color="white" stop-opacity="0.25"/>
<stop offset="1" stop-color="white" stop-opacity="0"/>
</linearGradient>
<linearGradient id="paint3_linear_725_1872" x1="45.8356" y1="36.1176" x2="40.422" y2="36.2941" gradientUnits="userSpaceOnUse">
<stop stop-color="white"/>
<stop offset="1" stop-color="white" stop-opacity="0.2"/>
</linearGradient>
<linearGradient id="paint4_linear_725_1872" x1="41.8437" y1="36.8703" x2="45.9705" y2="36.8931" gradientUnits="userSpaceOnUse">
<stop stop-color="white"/>
<stop offset="1" stop-color="white" stop-opacity="0"/>
</linearGradient>
<linearGradient id="paint5_linear_725_1872" x1="33.4844" y1="27.1026" x2="16.2675" y2="29.801" gradientUnits="userSpaceOnUse">
<stop stop-color="white"/>
<stop offset="1" stop-color="white" stop-opacity="0.2"/>
</linearGradient>
<linearGradient id="paint6_linear_725_1872" x1="20.4908" y1="27.6122" x2="33.9145" y2="27.9684" gradientUnits="userSpaceOnUse">
<stop stop-color="white"/>
<stop offset="1" stop-color="white" stop-opacity="0"/>
</linearGradient>
</defs>
</svg>
