<svg width="65" height="64" viewBox="0 0 65 64" fill="none" xmlns="http://www.w3.org/2000/svg">
<path d="M32.4888 39.5341C32.311 39.6367 32.1097 39.6988 31.9016 39.7088L25.1934 40.0327C23.2894 40.1238 21.6516 39.9381 20.1846 39.467C16.9745 38.4378 14.2807 36.2928 12.6013 33.424L7.07007 23.9838C6.43147 22.8944 6.57463 21.5031 7.42237 20.5207L15.0173 11.7466C15.4656 11.2208 16.0929 10.855 16.7784 10.7168L28.1459 8.39355C29.4174 8.1318 30.7015 8.68983 31.3378 9.77866L36.8731 19.2258C38.5516 22.0896 39.1064 25.4845 38.4368 28.7853C38.1294 30.2995 37.4888 31.8176 36.4804 33.4266L32.9269 39.1075C32.8172 39.2848 32.6658 39.43 32.4888 39.5341Z" fill="url(#paint0_linear_725_1809)"/>
<g filter="url(#filter0_f_725_1809)">
<path d="M29.5223 33.9097C29.4017 33.9794 29.2673 34.0249 29.1302 34.0388L24.713 34.4875C23.4593 34.6143 22.3907 34.5613 21.4448 34.3269C19.3752 33.8148 17.6861 32.5988 16.6901 30.9009L13.4095 25.3137C13.0307 24.669 13.1765 23.8098 13.7698 23.1754L19.0841 17.5081C19.3981 17.1687 19.8236 16.9208 20.2789 16.8105L27.8304 14.9614C28.6751 14.7534 29.4975 15.048 29.8748 15.6925L33.1579 21.2838C34.1534 22.9787 34.3913 25.0414 33.8286 27.092C33.5704 28.0326 33.0931 28.9881 32.3711 30.013L29.8259 33.6317C29.7472 33.7445 29.6425 33.8393 29.5223 33.9097Z" fill="#8237FF" fill-opacity="0.5"/>
</g>
<g filter="url(#filter1_b_725_1809)">
<mask id="path-3-outside-1_725_1809" maskUnits="userSpaceOnUse" x="16.308" y="8.45581" width="46.5275" height="51.5457" fill="black">
<rect fill="white" x="16.308" y="8.45581" width="46.5275" height="51.5457"/>
<path d="M36.1464 56.0617C35.8766 56.0202 35.6162 55.9167 35.3921 55.7532L28.1687 50.4836C26.1192 48.9871 24.5763 47.4241 23.448 45.7061C20.9782 41.9486 19.9731 37.4581 20.6225 33.0603L22.7545 18.5845C23.0002 16.9138 24.3079 15.5814 26.0051 15.2649L41.1883 12.4569C42.091 12.2829 43.0461 12.4254 43.8718 12.8542L57.5908 19.9322C59.1268 20.7219 59.9929 22.3777 59.7453 24.046L57.6117 38.5324C56.9655 42.9242 54.712 46.931 51.2677 49.8162C49.6874 51.1395 47.7585 52.1882 45.3727 53.0245L36.9559 55.9827C36.6945 56.076 36.4166 56.1011 36.1464 56.0617Z"/>
</mask>
<path d="M36.1464 56.0617C35.8766 56.0202 35.6162 55.9167 35.3921 55.7532L28.1687 50.4836C26.1192 48.9871 24.5763 47.4241 23.448 45.7061C20.9782 41.9486 19.9731 37.4581 20.6225 33.0603L22.7545 18.5845C23.0002 16.9138 24.3079 15.5814 26.0051 15.2649L41.1883 12.4569C42.091 12.2829 43.0461 12.4254 43.8718 12.8542L57.5908 19.9322C59.1268 20.7219 59.9929 22.3777 59.7453 24.046L57.6117 38.5324C56.9655 42.9242 54.712 46.931 51.2677 49.8162C49.6874 51.1395 47.7585 52.1882 45.3727 53.0245L36.9559 55.9827C36.6945 56.076 36.4166 56.1011 36.1464 56.0617Z" fill="#3EA0FE" fill-opacity="0.35"/>
<path d="M36.0643 56.5954C36.3591 56.6408 36.6348 56.4386 36.6801 56.1438C36.7255 55.849 36.5233 55.5733 36.2285 55.528L36.0643 56.5954ZM35.3921 55.7532L35.7103 55.3169L35.7103 55.3169L35.3921 55.7532ZM28.1687 50.4836L27.8503 50.9197L27.8505 50.9199L28.1687 50.4836ZM23.448 45.7061L23.8994 45.4097L23.8993 45.4095L23.448 45.7061ZM20.6225 33.0603L21.1567 33.1392L21.1567 33.1389L20.6225 33.0603ZM22.7545 18.5845L23.2887 18.6632L23.2887 18.6631L22.7545 18.5845ZM26.0051 15.2649L25.9069 14.7339L25.9061 14.734L26.0051 15.2649ZM41.1883 12.4569L41.2865 12.9879L41.2905 12.9871L41.1883 12.4569ZM43.8718 12.8542L43.6229 13.3335L43.6242 13.3341L43.8718 12.8542ZM57.5908 19.9322L57.3432 20.4121L57.3439 20.4125L57.5908 19.9322ZM59.7453 24.046L59.2112 23.9667L59.2111 23.9673L59.7453 24.046ZM57.6117 38.5324L57.0775 38.4537L57.0775 38.4538L57.6117 38.5324ZM51.2677 49.8162L51.6144 50.2302L51.6144 50.2301L51.2677 49.8162ZM45.3727 53.0245L45.1941 52.5149L45.1937 52.515L45.3727 53.0245ZM36.9559 55.9827L36.7768 55.4733L36.7744 55.4741L36.9559 55.9827ZM36.2243 55.5273C35.9292 55.4843 35.6551 55.6887 35.6121 55.9838C35.5691 56.279 35.7734 56.5531 36.0686 56.5961L36.2243 55.5273ZM36.2285 55.528C36.0398 55.4989 35.8613 55.4271 35.7103 55.3169L35.0738 56.1894C35.3711 56.4064 35.7133 56.5414 36.0643 56.5954L36.2285 55.528ZM35.7103 55.3169L28.487 50.0474L27.8505 50.9199L35.0738 56.1894L35.7103 55.3169ZM28.4872 50.0475C26.4784 48.5807 24.985 47.0627 23.8994 45.4097L22.9967 46.0025C24.1677 47.7855 25.7601 49.3935 27.8503 50.9197L28.4872 50.0475ZM23.8993 45.4095C21.5012 41.7611 20.5269 37.404 21.1567 33.1392L20.0883 32.9814C19.4192 37.5122 20.4552 42.136 22.9968 46.0027L23.8993 45.4095ZM21.1567 33.1389L23.2887 18.6632L22.2202 18.5058L20.0883 32.9816L21.1567 33.1389ZM23.2887 18.6631C23.4997 17.2284 24.6258 16.0714 26.1041 15.7957L25.9061 14.734C23.9899 15.0914 22.5006 16.5991 22.2202 18.506L23.2887 18.6631ZM26.1033 15.7959L41.2865 12.9879L41.0901 11.9259L25.9069 14.7339L26.1033 15.7959ZM41.2905 12.9871C42.0715 12.8366 42.9031 12.9596 43.6229 13.3335L44.1207 12.375C43.1891 11.8911 42.1105 11.7292 41.0861 11.9266L41.2905 12.9871ZM43.6242 13.3341L57.3432 20.4121L57.8384 19.4523L44.1194 12.3744L43.6242 13.3341ZM57.3439 20.4125C58.6806 21.0997 59.4238 22.5342 59.2112 23.9667L60.2795 24.1253C60.5621 22.2212 59.5731 20.3442 57.8377 19.452L57.3439 20.4125ZM59.2111 23.9673L57.0775 38.4537L58.146 38.6111L60.2796 24.1247L59.2111 23.9673ZM57.0775 38.4538C56.4508 42.7128 54.2652 46.6009 50.9209 49.4022L51.6144 50.2301C55.1588 47.2611 57.4802 43.1357 58.146 38.611L57.0775 38.4538ZM50.921 49.4021C49.4005 50.6754 47.5323 51.6953 45.1941 52.5149L45.5514 53.5341C47.9848 52.6811 49.9743 51.6036 51.6144 50.2302L50.921 49.4021ZM45.1937 52.515L36.7768 55.4733L37.1349 56.4922L45.5518 53.5339L45.1937 52.515ZM36.7744 55.4741C36.5986 55.5369 36.4099 55.5544 36.2243 55.5273L36.0686 56.5961C36.4233 56.6477 36.7904 56.6151 37.1373 56.4914L36.7744 55.4741Z" fill="url(#paint1_linear_725_1809)" mask="url(#path-3-outside-1_725_1809)"/>
</g>
<g filter="url(#filter2_bd_725_1809)">
<path d="M37.0479 39.0692C36.6263 39.0065 36.2284 38.79 35.9516 38.428L32.3921 33.7679C31.843 33.0446 31.9922 32.0306 32.7273 31.5005C33.4627 30.9683 34.5059 31.1222 35.0575 31.8436L37.619 35.1952L46.071 29.0878C46.8086 28.5559 47.8518 28.7098 48.4012 29.4308C48.9524 30.1544 48.8029 31.1705 48.0681 31.6985L38.2818 38.7711C37.9129 39.0381 37.4695 39.1318 37.0479 39.0692Z" fill="url(#paint2_linear_725_1809)"/>
<path d="M32.7589 31.5443L32.7589 31.5443C32.0485 32.0566 31.9042 33.036 32.4351 33.7352L35.9945 38.3952C36.2622 38.7453 36.6472 38.955 37.0558 39.0157C37.4642 39.0764 37.8933 38.9856 38.2502 38.7273L38.2502 38.7273L48.0365 31.6547L48.0366 31.6546C48.7465 31.1446 48.8912 30.1631 48.3582 29.4636C47.8266 28.7659 46.8166 28.6167 46.1026 29.1316L32.7589 31.5443ZM32.7589 31.5443C33.4706 31.0292 34.4807 31.1782 35.0146 31.8764L37.5761 35.228L37.608 35.2698L37.6506 35.239L46.1026 29.1316L32.7589 31.5443Z" stroke="url(#paint3_linear_725_1809)" stroke-opacity="0.5" stroke-width="0.108"/>
</g>
<defs>
<filter id="filter0_f_725_1809" x="0.240563" y="1.93551" width="46.8465" height="45.5789" filterUnits="userSpaceOnUse" color-interpolation-filters="sRGB">
<feFlood flood-opacity="0" result="BackgroundImageFix"/>
<feBlend mode="normal" in="SourceGraphic" in2="BackgroundImageFix" result="shape"/>
<feGaussianBlur stdDeviation="6.48" result="effect1_foregroundBlur_725_1809"/>
</filter>
<filter id="filter1_b_725_1809" x="6.92989" y="-1.11552" width="66.3575" height="70.6951" filterUnits="userSpaceOnUse" color-interpolation-filters="sRGB">
<feFlood flood-opacity="0" result="BackgroundImageFix"/>
<feGaussianBlur in="BackgroundImageFix" stdDeviation="6.48"/>
<feComposite in2="SourceAlpha" operator="in" result="effect1_backgroundBlur_725_1809"/>
<feBlend mode="normal" in="SourceGraphic" in2="effect1_backgroundBlur_725_1809" result="shape"/>
</filter>
<filter id="filter2_bd_725_1809" x="23.961" y="20.671" width="32.8727" height="26.5169" filterUnits="userSpaceOnUse" color-interpolation-filters="sRGB">
<feFlood flood-opacity="0" result="BackgroundImageFix"/>
<feGaussianBlur in="BackgroundImageFix" stdDeviation="4.05"/>
<feComposite in2="SourceAlpha" operator="in" result="effect1_backgroundBlur_725_1809"/>
<feColorMatrix in="SourceAlpha" type="matrix" values="0 0 0 0 0 0 0 0 0 0 0 0 0 0 0 0 0 0 127 0" result="hardAlpha"/>
<feOffset dx="2.7" dy="2.7"/>
<feGaussianBlur stdDeviation="2.7"/>
<feColorMatrix type="matrix" values="0 0 0 0 0.376471 0 0 0 0 0.574118 0 0 0 0 0.870588 0 0 0 0.5 0"/>
<feBlend mode="normal" in2="effect1_backgroundBlur_725_1809" result="effect2_dropShadow_725_1809"/>
<feBlend mode="normal" in="SourceGraphic" in2="effect2_dropShadow_725_1809" result="shape"/>
</filter>
<linearGradient id="paint0_linear_725_1809" x1="15.8764" y1="11.0473" x2="32.3646" y2="39.6058" gradientUnits="userSpaceOnUse">
<stop stop-color="#AF84E7"/>
<stop offset="1" stop-color="#9350E7"/>
</linearGradient>
<linearGradient id="paint1_linear_725_1809" x1="29.2534" y1="15.5812" x2="53.0597" y2="49.8533" gradientUnits="userSpaceOnUse">
<stop stop-color="white" stop-opacity="0.25"/>
<stop offset="1" stop-color="white" stop-opacity="0.06"/>
</linearGradient>
<linearGradient id="paint2_linear_725_1809" x1="47.5085" y1="30.9617" x2="29.6187" y2="29.0276" gradientUnits="userSpaceOnUse">
<stop stop-color="white"/>
<stop offset="1" stop-color="white" stop-opacity="0.2"/>
</linearGradient>
<linearGradient id="paint3_linear_725_1809" x1="34.1189" y1="30.7388" x2="47.6595" y2="32.9269" gradientUnits="userSpaceOnUse">
<stop stop-color="white"/>
<stop offset="1" stop-color="white" stop-opacity="0"/>
</linearGradient>
</defs>
</svg>
