<svg width="64" height="64" viewBox="0 0 64 64" fill="none" xmlns="http://www.w3.org/2000/svg">
<path d="M32.1188 35.3563C31.3724 33.7966 31.1733 32.565 31.6737 30.6972L31.8439 30.0622C32.496 27.6283 32.3561 25.9101 31.5584 24.0156C30.3338 21.0772 27.5671 18.7627 24.4736 17.9338L24.342 17.8985C21.3136 17.0871 17.8773 17.6673 15.3416 19.4921C13.6286 20.7476 12.5652 22.2156 11.8949 24.7169L11.7248 25.3519C11.2243 27.2197 10.4686 28.1955 9.00982 29.1643C7.93613 29.8783 7.35118 31.009 7.00283 32.3091C6.65408 33.6106 6.75093 34.9577 7.3397 36.1895C8.13671 37.6905 9.51124 38.8807 11.0895 39.4465C13.3549 40.3392 15.6647 41.0657 18.0355 41.7009C20.4048 42.3358 22.7865 42.7941 25.1781 43.2215C26.8263 43.5202 28.6118 43.1768 30.0526 42.2753C31.1768 41.5026 31.9358 40.3848 32.2845 39.0833C32.6329 37.7832 32.6916 36.5115 32.1188 35.3563Z" fill="url(#paint0_linear_725_1725)"/>
<path d="M20.5021 44.4415C19.8012 44.0835 15.271 42.8697 14.485 42.8292C13.8101 42.8057 13.0314 42.9631 12.8307 43.7119C12.6762 44.4363 12.9255 45.1789 13.3978 45.7341L13.3959 45.7352C13.9887 46.5201 14.7686 47.1272 15.6537 47.5072C16.1264 47.7061 16.6267 47.837 17.1524 47.9088C18.1075 48.0218 19.0865 47.886 19.9923 47.5027L19.9913 47.5008C20.6778 47.2561 21.265 46.7376 21.4934 46.0331C21.6941 45.2842 21.0983 44.7586 20.5021 44.4415Z" fill="url(#paint1_linear_725_1725)"/>
<g opacity="0.5" filter="url(#filter0_f_725_1725)">
<path d="M26.9484 32.9721C26.6684 31.9975 26.6339 31.2087 26.965 29.973L27.0776 29.5529C27.509 27.9426 27.5267 26.8354 27.2387 25.6462C26.798 23.8012 25.5896 22.4366 24.1519 22.0513L24.0907 22.035C22.6833 21.6578 21.0124 22.2032 19.7107 23.5112C18.8302 24.4095 18.2497 25.4138 17.8063 27.0686L17.6937 27.4888C17.3626 28.7245 16.9534 29.3944 16.2085 30.0943C15.6602 30.6102 15.325 31.3721 15.0945 32.2322C14.8638 33.0933 14.8438 33.9621 15.0646 34.7317C15.3716 35.6658 15.97 36.3699 16.6965 36.6591C17.7352 37.1265 18.8034 37.4839 19.9053 37.7791C21.0064 38.0741 22.1221 38.2542 23.2441 38.4135C24.0172 38.5262 24.8875 38.2156 25.6204 37.5602C26.1958 37.0038 26.6135 36.2417 26.8442 35.3806C27.0747 34.5204 27.1654 33.693 26.9484 32.9721Z" fill="#8237FF"/>
</g>
<g filter="url(#filter1_b_725_1725)">
<mask id="path-4-outside-1_725_1725" maskUnits="userSpaceOnUse" x="13.492" y="4.70904" width="46.7715" height="44.4548" fill="black">
<rect fill="white" x="13.492" y="4.70904" width="46.7715" height="44.4548"/>
<path d="M54.1664 27.1429C52.2023 25.6346 51.1499 24.1906 50.5787 21.4809L50.3845 20.5596C49.6402 17.0285 48.3479 14.9247 46.1014 13.022C42.6333 10.0628 37.5998 8.89968 33.1117 9.84574L32.9208 9.88597C28.5271 10.8121 24.5144 13.78 22.4585 17.7538C21.0842 20.4674 20.6774 23.0315 21.4423 26.6604L21.6365 27.5817C22.2077 30.2914 21.8749 32.0274 20.6396 34.2101C19.731 35.8178 19.7167 37.641 20.1143 39.5271C20.5123 41.4155 21.509 43.0732 23.0591 44.2648C25.0498 45.6653 27.5766 46.2947 29.959 45.9945C33.4307 45.6666 36.8516 45.0976 40.2911 44.3726C43.7285 43.648 47.0674 42.69 50.3988 41.6859C52.6976 40.9994 54.7553 39.4036 56.0112 37.3187C56.9464 35.6033 57.1913 33.6838 56.7932 31.7955C56.3956 29.9093 55.6466 28.2471 54.1664 27.1429Z"/>
</mask>
<path d="M54.1664 27.1429C52.2023 25.6346 51.1499 24.1906 50.5787 21.4809L50.3845 20.5596C49.6402 17.0285 48.3479 14.9247 46.1014 13.022C42.6333 10.0628 37.5998 8.89968 33.1117 9.84574L32.9208 9.88597C28.5271 10.8121 24.5144 13.78 22.4585 17.7538C21.0842 20.4674 20.6774 23.0315 21.4423 26.6604L21.6365 27.5817C22.2077 30.2914 21.8749 32.0274 20.6396 34.2101C19.731 35.8178 19.7167 37.641 20.1143 39.5271C20.5123 41.4155 21.509 43.0732 23.0591 44.2648C25.0498 45.6653 27.5766 46.2947 29.959 45.9945C33.4307 45.6666 36.8516 45.0976 40.2911 44.3726C43.7285 43.648 47.0674 42.69 50.3988 41.6859C52.6976 40.9994 54.7553 39.4036 56.0112 37.3187C56.9464 35.6033 57.1913 33.6838 56.7932 31.7955C56.3956 29.9093 55.6466 28.2471 54.1664 27.1429Z" fill="#3EA0FE" fill-opacity="0.35"/>
<path d="M53.8375 27.5712C54.074 27.7528 54.413 27.7083 54.5947 27.4718C54.7763 27.2353 54.7318 26.8963 54.4953 26.7146L53.8375 27.5712ZM46.1014 13.022L45.7509 13.4328L45.7524 13.4341L46.1014 13.022ZM22.4585 17.7538L21.9788 17.5057L21.9767 17.5099L22.4585 17.7538ZM20.6396 34.2101L20.1696 33.9441L20.1695 33.9444L20.6396 34.2101ZM23.0591 44.2648L22.7301 44.6929C22.7361 44.6975 22.7422 44.702 22.7484 44.7064L23.0591 44.2648ZM29.959 45.9945L29.9082 45.4569C29.9026 45.4574 29.897 45.458 29.8915 45.4587L29.959 45.9945ZM50.3988 41.6859L50.2443 41.1685L50.243 41.1689L50.3988 41.6859ZM56.0112 37.3187L56.4738 37.5973C56.4778 37.5907 56.4817 37.584 56.4854 37.5772L56.0112 37.3187ZM54.4892 26.7101C54.2502 26.5317 53.9118 26.581 53.7335 26.82C53.5552 27.0591 53.6044 27.3974 53.8435 27.5757L54.4892 26.7101ZM54.4953 26.7146C53.5423 25.9828 52.838 25.2875 52.3024 24.4672C51.7675 23.6481 51.3825 22.6762 51.1071 21.3695L50.0503 21.5923C50.3461 22.9953 50.7729 24.1003 51.3981 25.0577C52.0224 26.0138 52.8263 26.7947 53.8375 27.5712L54.4953 26.7146ZM51.1071 21.3695L50.9129 20.4482L49.8561 20.6709L50.0503 21.5923L51.1071 21.3695ZM50.9129 20.4482C50.146 16.8101 48.7962 14.5967 46.4504 12.6099L45.7524 13.4341C47.8996 15.2526 49.1343 17.2469 49.8561 20.6709L50.9129 20.4482ZM46.4519 12.6112C42.8485 9.53661 37.6419 8.33894 33.0003 9.31735L33.223 10.3741C37.5577 9.46042 42.418 10.589 45.7509 13.4328L46.4519 12.6112ZM33.0003 9.31735L32.8094 9.35758L33.0322 10.4144L33.223 10.3741L33.0003 9.31735ZM32.8094 9.35758C28.2634 10.3159 24.1122 13.3823 21.9789 17.5057L22.9381 18.002C24.9167 14.1777 28.7908 11.3084 33.0322 10.4144L32.8094 9.35758ZM21.9767 17.5099C20.5445 20.3379 20.1247 23.0279 20.9139 26.7717L21.9707 26.549C21.23 23.0351 21.6239 20.5969 22.9402 17.9978L21.9767 17.5099ZM20.9139 26.7717L21.1081 27.6931L22.1649 27.4703L21.9707 26.549L20.9139 26.7717ZM21.1081 27.6931C21.3844 29.0038 21.4352 30.0461 21.2822 31.0088C21.1292 31.9712 20.7669 32.8888 20.1696 33.9441L21.1095 34.4761C21.7476 33.3487 22.1694 32.307 22.3488 31.1783C22.5282 30.0498 22.4598 28.8694 22.1649 27.4703L21.1081 27.6931ZM20.1695 33.9444C19.1698 35.7133 19.1748 37.6884 19.5859 39.6385L20.6426 39.4158C20.2585 37.5936 20.2922 35.9223 21.1097 34.4758L20.1695 33.9444ZM19.5859 39.6385C20.009 41.6458 21.0723 43.4186 22.7301 44.6929L23.3882 43.8366C21.9457 42.7278 21.0156 41.1852 20.6426 39.4158L19.5859 39.6385ZM22.7484 44.7064C24.8482 46.1837 27.5097 46.8474 30.0265 46.5302L29.8915 45.4587C27.6435 45.742 25.2514 45.1469 23.3699 43.8231L22.7484 44.7064ZM30.0097 46.5321C33.5066 46.2019 36.9482 45.6291 40.4025 44.901L40.1797 43.8442C36.755 44.5661 33.3548 45.1314 29.9082 45.4569L30.0097 46.5321ZM40.4025 44.901C43.8633 44.1714 47.2203 43.2079 50.5547 42.2029L50.243 41.1689C46.9146 42.1721 43.5937 43.1245 40.1797 43.8442L40.4025 44.901ZM50.5534 42.2033C52.9819 41.478 55.1491 39.7965 56.4738 37.5973L55.5487 37.0401C54.3616 39.0107 52.4132 40.5207 50.2443 41.1685L50.5534 42.2033ZM56.4854 37.5772C57.4852 35.7431 57.7448 33.6917 57.3216 31.6841L56.2648 31.9069C56.6377 33.6759 56.4076 35.4634 55.5371 37.0602L56.4854 37.5772ZM57.3216 31.6841C56.9105 29.734 56.1178 27.9249 54.4892 26.7101L53.8435 27.5757C55.1753 28.5692 55.8807 30.0847 56.2648 31.9069L57.3216 31.6841Z" fill="url(#paint2_linear_725_1725)" mask="url(#path-4-outside-1_725_1725)"/>
</g>
<g filter="url(#filter2_b_725_1725)">
<mask id="path-6-outside-2_725_1725" maskUnits="userSpaceOnUse" x="33.347" y="44.4793" width="16.3275" height="10.9219" fill="black">
<rect fill="white" x="33.347" y="44.4793" width="16.3275" height="10.9219"/>
<path d="M45.217 46.2735C44.0898 46.2705 37.5174 47.656 36.4873 48.1137C35.6102 48.521 34.7175 49.2266 34.9465 50.3131C35.2186 51.3383 36.0183 52.1252 36.9812 52.5282L36.9795 52.5308C38.2453 53.1491 39.6348 53.4191 41.0115 53.3309C41.744 53.2786 42.4679 53.1215 43.1858 52.8725C44.4788 52.398 45.6411 51.5901 46.5497 50.5135L46.5471 50.5118C47.2654 49.7544 47.6794 48.7117 47.5145 47.6639C47.2855 46.5774 46.1839 46.2921 45.217 46.2735Z"/>
</mask>
<path d="M45.217 46.2735C44.0898 46.2705 37.5174 47.656 36.4873 48.1137C35.6102 48.521 34.7175 49.2266 34.9465 50.3131C35.2186 51.3383 36.0183 52.1252 36.9812 52.5282L36.9795 52.5308C38.2453 53.1491 39.6348 53.4191 41.0115 53.3309C41.744 53.2786 42.4679 53.1215 43.1858 52.8725C44.4788 52.398 45.6411 51.5901 46.5497 50.5135L46.5471 50.5118C47.2654 49.7544 47.6794 48.7117 47.5145 47.6639C47.2855 46.5774 46.1839 46.2921 45.217 46.2735Z" fill="#3EA0FE" fill-opacity="0.35"/>
<path d="M45.2155 46.8135C45.5138 46.8143 45.7562 46.5732 45.757 46.2749C45.7577 45.9767 45.5166 45.7343 45.2184 45.7335L45.2155 46.8135ZM36.4873 48.1137L36.268 47.6201L36.2599 47.6239L36.4873 48.1137ZM34.9465 50.3131L34.4181 50.4245C34.42 50.4336 34.4222 50.4426 34.4246 50.4516L34.9465 50.3131ZM36.9812 52.5282L37.4355 52.8201C37.5218 52.6858 37.5442 52.5202 37.4968 52.3678C37.4494 52.2153 37.3369 52.0917 37.1897 52.0301L36.9812 52.5282ZM36.9795 52.5308L36.5252 52.2389C36.4418 52.3687 36.4179 52.5278 36.4594 52.6763C36.501 52.8247 36.604 52.9484 36.7425 53.016L36.9795 52.5308ZM41.0115 53.3309L41.046 53.8698L41.0499 53.8695L41.0115 53.3309ZM43.1858 52.8725L43.3628 53.3828L43.3719 53.3795L43.1858 52.8725ZM46.5497 50.5135L46.9624 50.8618C47.0618 50.7439 47.1061 50.5892 47.0842 50.4366C47.0622 50.284 46.9761 50.148 46.8475 50.063L46.5497 50.5135ZM46.5471 50.5118L46.1553 50.1402C46.0454 50.256 45.9924 50.4145 46.0106 50.5732C46.0287 50.7318 46.1161 50.8742 46.2493 50.9623L46.5471 50.5118ZM47.5145 47.6639L48.0479 47.5799C48.0465 47.5707 48.0448 47.5616 48.0429 47.5525L47.5145 47.6639ZM45.2273 45.7336C44.9292 45.7279 44.6828 45.965 44.6771 46.2631C44.6713 46.5613 44.9084 46.8077 45.2066 46.8134L45.2273 45.7336ZM45.2184 45.7335C44.8802 45.7326 44.2084 45.8289 43.4304 45.9633C42.6314 46.1013 41.6652 46.2899 40.7044 46.4924C39.7435 46.695 38.7834 46.9125 37.9967 47.1087C37.2306 47.2998 36.5771 47.4829 36.2681 47.6202L36.7066 48.6071C36.9126 48.5156 37.467 48.3539 38.2581 48.1566C39.0286 47.9644 39.9753 47.7499 40.9271 47.5492C41.879 47.3486 42.8317 47.1627 43.6142 47.0275C44.4177 46.8887 44.9901 46.8129 45.2155 46.8135L45.2184 45.7335ZM36.2599 47.6239C35.7866 47.8436 35.2643 48.1629 34.8881 48.6119C34.4972 49.0786 34.2636 49.6913 34.4181 50.4245L35.4749 50.2017C35.4004 49.8484 35.4986 49.565 35.716 49.3054C35.9483 49.0282 36.3109 48.791 36.7148 48.6034L36.2599 47.6239ZM34.4246 50.4516C34.7475 51.6684 35.6858 52.5714 36.7727 53.0263L37.1897 52.0301C36.3508 51.679 35.6897 51.0082 35.4684 50.1746L34.4246 50.4516ZM36.5269 52.2363L36.5252 52.2389L37.4338 52.8227L37.4355 52.8201L36.5269 52.2363ZM36.7425 53.016C38.0928 53.6756 39.5759 53.964 41.046 53.8698L40.9769 52.792C39.6936 52.8742 38.3978 52.6226 37.2165 52.0456L36.7425 53.016ZM41.0499 53.8695C41.8344 53.8135 42.6048 53.6455 43.3627 53.3827L43.0089 52.3623C42.3309 52.5974 41.6536 52.7437 40.973 52.7922L41.0499 53.8695ZM43.3719 53.3795C44.7527 52.8727 45.9932 52.0102 46.9624 50.8618L46.137 50.1652C45.2891 51.17 44.205 51.9233 42.9998 52.3656L43.3719 53.3795ZM46.8475 50.063L46.8448 50.0613L46.2493 50.9623L46.2519 50.964L46.8475 50.063ZM46.9389 50.8834C47.7497 50.0284 48.2436 48.8236 48.0479 47.5799L46.9811 47.7478C47.1151 48.5998 46.781 49.4804 46.1553 50.1402L46.9389 50.8834ZM48.0429 47.5525C47.8883 46.8193 47.4273 46.3531 46.8812 46.0839C46.3558 45.8249 45.749 45.7436 45.2273 45.7336L45.2066 46.8134C45.6518 46.822 46.0793 46.8927 46.4037 47.0526C46.7074 47.2023 46.9116 47.422 46.9861 47.7752L48.0429 47.5525Z" fill="url(#paint3_linear_725_1725)" mask="url(#path-6-outside-2_725_1725)"/>
</g>
<g filter="url(#filter3_bd_725_1725)">
<path d="M40.3098 15.596C39.5279 15.4205 38.7383 15.8772 38.4942 16.6168C38.4122 17.0283 38.4775 17.4643 38.7101 17.8118C38.9428 18.1593 39.3069 18.4055 39.7338 18.4961L39.7901 18.5131C41.0613 18.8951 41.9743 20.02 42.0605 21.3168C42.1019 22.162 42.8182 22.8135 43.6585 22.7884C44.5042 22.7451 45.152 22.0476 45.1196 21.2249C44.9341 18.6095 43.0903 16.3721 40.5262 15.6611L40.3098 15.596Z" fill="url(#paint4_linear_725_1725)"/>
<path d="M39.745 18.4433L39.745 18.4431L39.7493 18.4444L39.8057 18.4614C41.0977 18.8496 42.0266 19.9932 42.1143 21.3132L42.1143 21.3132L42.1144 21.3142C42.1544 22.1294 42.8453 22.7583 43.6563 22.7344C44.473 22.6924 45.0964 22.0194 45.0657 21.2279C44.8814 18.636 43.054 16.4181 40.5118 15.7131L40.5118 15.7131L40.5107 15.7128L40.2962 15.6483C39.543 15.4803 38.7829 15.9198 38.5466 16.6306C38.4679 17.0291 38.532 17.4487 38.755 17.7818C38.9796 18.1173 39.3316 18.3556 39.745 18.4433Z" stroke="url(#paint5_linear_725_1725)" stroke-opacity="0.5" stroke-width="0.108"/>
</g>
<defs>
<filter id="filter0_f_725_1725" x="1.94967" y="8.95797" width="38.4425" height="42.4383" filterUnits="userSpaceOnUse" color-interpolation-filters="sRGB">
<feFlood flood-opacity="0" result="BackgroundImageFix"/>
<feBlend mode="normal" in="SourceGraphic" in2="BackgroundImageFix" result="shape"/>
<feGaussianBlur stdDeviation="6.48" result="effect1_foregroundBlur_725_1725"/>
</filter>
<filter id="filter1_b_725_1725" x="11.2257" y="0.883887" width="54.3909" height="53.824" filterUnits="userSpaceOnUse" color-interpolation-filters="sRGB">
<feFlood flood-opacity="0" result="BackgroundImageFix"/>
<feGaussianBlur in="BackgroundImageFix" stdDeviation="4.05"/>
<feComposite in2="SourceAlpha" operator="in" result="effect1_backgroundBlur_725_1725"/>
<feBlend mode="normal" in="SourceGraphic" in2="effect1_backgroundBlur_725_1725" result="shape"/>
</filter>
<filter id="filter2_b_725_1725" x="26.27" y="37.6334" width="29.9207" height="24.3538" filterUnits="userSpaceOnUse" color-interpolation-filters="sRGB">
<feFlood flood-opacity="0" result="BackgroundImageFix"/>
<feGaussianBlur in="BackgroundImageFix" stdDeviation="4.05"/>
<feComposite in2="SourceAlpha" operator="in" result="effect1_backgroundBlur_725_1725"/>
<feBlend mode="normal" in="SourceGraphic" in2="effect1_backgroundBlur_725_1725" result="shape"/>
</filter>
<filter id="filter3_bd_725_1725" x="30.3604" y="7.45859" width="22.8604" height="23.4305" filterUnits="userSpaceOnUse" color-interpolation-filters="sRGB">
<feFlood flood-opacity="0" result="BackgroundImageFix"/>
<feGaussianBlur in="BackgroundImageFix" stdDeviation="4.05"/>
<feComposite in2="SourceAlpha" operator="in" result="effect1_backgroundBlur_725_1725"/>
<feColorMatrix in="SourceAlpha" type="matrix" values="0 0 0 0 0 0 0 0 0 0 0 0 0 0 0 0 0 0 127 0" result="hardAlpha"/>
<feOffset dx="2.7" dy="2.7"/>
<feGaussianBlur stdDeviation="2.7"/>
<feColorMatrix type="matrix" values="0 0 0 0 0.15375 0 0 0 0 0.522433 0 0 0 0 0.9 0 0 0 0.5 0"/>
<feBlend mode="normal" in2="effect1_backgroundBlur_725_1725" result="effect2_dropShadow_725_1725"/>
<feBlend mode="normal" in="SourceGraphic" in2="effect2_dropShadow_725_1725" result="shape"/>
</filter>
<linearGradient id="paint0_linear_725_1725" x1="24.4078" y1="17.9162" x2="18.0348" y2="41.7007" gradientUnits="userSpaceOnUse">
<stop stop-color="#AF84E7"/>
<stop offset="1" stop-color="#9350E7"/>
</linearGradient>
<linearGradient id="paint1_linear_725_1725" x1="17.5255" y1="43.5163" x2="16.3891" y2="47.7572" gradientUnits="userSpaceOnUse">
<stop stop-color="#AF84E7"/>
<stop offset="1" stop-color="#9350E7"/>
</linearGradient>
<linearGradient id="paint2_linear_725_1725" x1="21.3629" y1="16.521" x2="49.0747" y2="40.5058" gradientUnits="userSpaceOnUse">
<stop stop-color="white" stop-opacity="0.25"/>
<stop offset="1" stop-color="white" stop-opacity="0"/>
</linearGradient>
<linearGradient id="paint3_linear_725_1725" x1="36.6835" y1="48.6406" x2="40.8925" y2="55.0068" gradientUnits="userSpaceOnUse">
<stop stop-color="white" stop-opacity="0.25"/>
<stop offset="1" stop-color="white" stop-opacity="0"/>
</linearGradient>
<linearGradient id="paint4_linear_725_1725" x1="44.8872" y1="17.4146" x2="42.7992" y2="23.7755" gradientUnits="userSpaceOnUse">
<stop stop-color="white"/>
<stop offset="1" stop-color="white" stop-opacity="0.2"/>
</linearGradient>
<linearGradient id="paint5_linear_725_1725" x1="42.3178" y1="21.7934" x2="43.7645" y2="16.9031" gradientUnits="userSpaceOnUse">
<stop stop-color="white"/>
<stop offset="1" stop-color="white" stop-opacity="0"/>
</linearGradient>
</defs>
</svg>
