<svg width="64" height="64" viewBox="0 0 64 64" fill="none" xmlns="http://www.w3.org/2000/svg">
<path fill-rule="evenodd" clip-rule="evenodd" d="M33.2851 23.1976C33.2852 23.1965 33.2855 23.1952 33.2858 23.194L33.387 22.8166C34.405 18.2621 31.6386 13.711 27.1151 12.499C22.5917 11.2869 17.9204 13.845 16.5247 18.2984C16.4687 18.4185 16.4342 18.5474 16.4227 18.6793L18.9072 19.345C18.9632 19.225 18.9977 19.0961 19.0092 18.9641C19.8765 15.7276 23.2123 13.8093 26.4599 14.6795C29.7076 15.5498 31.6374 18.8789 30.7701 22.1155C30.7369 22.2462 30.7272 22.3819 30.7416 22.5161L30.743 22.5165L16.2905 18.6439C14.1275 18.0643 11.4327 18.8727 9.73287 22.5313L5.61848 32.6354C2.48742 40.0245 5.92627 43.003 11.0877 44.386L25.0802 48.1352C30.2267 49.5142 34.8051 47.7625 35.677 40.6896L37.1809 29.8859C37.3899 25.9431 35.5637 23.8082 33.4306 23.2366L33.2851 23.1976Z" fill="url(#paint0_linear_725_1899)"/>
<g opacity="0.5" filter="url(#filter0_f_725_1899)">
<path d="M18.0682 29.5328C19.0881 26.8857 21.9408 25.4345 24.6809 26.1687C27.4211 26.9029 29.166 29.586 28.7257 32.3885L28.0926 36.4185C27.5411 39.9295 24.068 42.1881 20.635 41.2682C17.202 40.3484 15.3235 36.6558 16.6014 33.3394L18.0682 29.5328Z" fill="#8237FF"/>
</g>
<g filter="url(#filter1_bd_725_1899)">
<path fill-rule="evenodd" clip-rule="evenodd" d="M45.2947 17.5506C45.3433 17.7066 46.1204 20.9404 46.0944 21.1017L43.1741 21.8842C43.0865 21.7642 42.2253 18.6679 42.0441 18.0164L42.044 18.016L42.0122 17.9018C40.9681 14.0053 36.952 11.6958 33.0421 12.7435C29.1321 13.7912 26.8088 17.7993 27.8529 21.6958C27.9203 21.8403 28.9125 25.543 28.9263 25.7019L25.9352 26.5033C25.8678 26.3588 24.8756 22.6561 24.8618 22.4973C23.6361 17.0139 26.9667 11.5348 32.4126 10.0756C37.8585 8.61638 43.4824 11.6961 45.1626 17.0577L45.2947 17.5506ZM32.8508 32.9256C31.8589 33.1914 30.8331 32.5792 30.5595 31.5583C30.286 30.5374 30.8683 29.4944 31.8602 29.2286C32.852 28.9629 33.8779 29.575 34.1514 30.5959C34.4249 31.6168 33.8426 32.6598 32.8508 32.9256ZM42.3228 28.4067C42.5964 29.4276 43.6222 30.0397 44.6141 29.7739C45.606 29.5082 46.1883 28.4651 45.9147 27.4442C45.6412 26.4234 44.6154 25.8112 43.6235 26.077C42.6316 26.3428 42.0493 27.3858 42.3228 28.4067Z" fill="url(#paint1_linear_725_1899)"/>
</g>
<g filter="url(#filter2_b_725_1899)">
<mask id="path-4-outside-1_725_1899" maskUnits="userSpaceOnUse" x="16.487" y="14.6896" width="47.4369" height="43.1942" fill="black">
<rect fill="white" x="16.487" y="14.6896" width="47.4369" height="43.1942"/>
<path fill-rule="evenodd" clip-rule="evenodd" d="M59.1851 34.9242L54.2496 22.7547C52.0942 18.518 48.905 17.3913 46.3368 18.0795L25.7014 23.6087C23.0973 24.3065 20.7742 26.7715 21.2043 31.6092L22.9968 44.6208C24.1802 54.2097 29.5586 55.245 35.7726 53.58L52.6185 49.0661C58.8145 47.4059 62.5336 42.8235 59.1851 34.9242ZM32.9053 32.8917C31.9134 33.1575 30.8876 32.5453 30.614 31.5244C30.3405 30.5036 30.9228 29.4605 31.9147 29.1947C32.9066 28.929 33.9324 29.5411 34.2059 30.562C34.4795 31.5829 33.8971 32.6259 32.9053 32.8917ZM42.3773 28.3728C42.6508 29.3937 43.6767 30.0058 44.6685 29.7401C45.6604 29.4743 46.2427 28.4312 45.9692 27.4104C45.6956 26.3895 44.6698 25.7773 43.6779 26.0431C42.6861 26.3089 42.1037 27.3519 42.3773 28.3728Z"/>
</mask>
<path fill-rule="evenodd" clip-rule="evenodd" d="M59.1851 34.9242L54.2496 22.7547C52.0942 18.518 48.905 17.3913 46.3368 18.0795L25.7014 23.6087C23.0973 24.3065 20.7742 26.7715 21.2043 31.6092L22.9968 44.6208C24.1802 54.2097 29.5586 55.245 35.7726 53.58L52.6185 49.0661C58.8145 47.4059 62.5336 42.8235 59.1851 34.9242ZM32.9053 32.8917C31.9134 33.1575 30.8876 32.5453 30.614 31.5244C30.3405 30.5036 30.9228 29.4605 31.9147 29.1947C32.9066 28.929 33.9324 29.5411 34.2059 30.562C34.4795 31.5829 33.8971 32.6259 32.9053 32.8917ZM42.3773 28.3728C42.6508 29.3937 43.6767 30.0058 44.6685 29.7401C45.6604 29.4743 46.2427 28.4312 45.9692 27.4104C45.6956 26.3895 44.6698 25.7773 43.6779 26.0431C42.6861 26.3089 42.1037 27.3519 42.3773 28.3728Z" fill="#3EA0FE" fill-opacity="0.35"/>
<path d="M54.2496 22.7547L54.75 22.5518C54.7442 22.5375 54.7379 22.5236 54.7309 22.5099L54.2496 22.7547ZM59.1851 34.9242L58.6846 35.1272L58.6879 35.1349L59.1851 34.9242ZM46.3368 18.0795L46.4765 18.6011L46.3368 18.0795ZM25.7014 23.6087L25.5616 23.0871L25.7014 23.6087ZM21.2043 31.6092L20.6664 31.657C20.6672 31.6657 20.6681 31.6743 20.6693 31.6829L21.2043 31.6092ZM22.9968 44.6208L23.5328 44.5547L23.5318 44.5471L22.9968 44.6208ZM35.7726 53.58L35.6328 53.0584L35.7726 53.58ZM52.6185 49.0661L52.7583 49.5877L52.6185 49.0661ZM53.7492 22.9577L58.6846 35.1271L59.6855 34.7212L54.75 22.5518L53.7492 22.9577ZM46.4765 18.6011C48.7447 17.9933 51.7014 18.9367 53.7683 22.9996L54.7309 22.5099C52.487 18.0992 49.0653 16.7893 46.197 17.5579L46.4765 18.6011ZM25.8412 24.1303L46.4765 18.6011L46.197 17.5579L25.5616 23.0871L25.8412 24.1303ZM21.7421 31.5614C21.5355 29.2369 21.994 27.538 22.7674 26.3513C23.5407 25.1648 24.6556 24.448 25.8412 24.1303L25.5616 23.0871C24.1431 23.4672 22.7944 24.3318 21.8626 25.7616C20.9309 27.1913 20.443 29.1438 20.6664 31.657L21.7421 31.5614ZM23.5318 44.5471L21.7392 31.5355L20.6693 31.6829L22.4619 44.6945L23.5318 44.5471ZM35.6328 53.0584C32.5654 53.8803 29.8406 53.9937 27.7587 52.8476C25.7046 51.7167 24.114 49.2645 23.5328 44.5547L22.4609 44.6869C23.063 49.566 24.7533 52.4258 27.2378 53.7937C29.6944 55.1461 32.7658 54.9447 35.9123 54.1016L35.6328 53.0584ZM52.4787 48.5445L35.6328 53.0584L35.9123 54.1016L52.7583 49.5877L52.4787 48.5445ZM58.6879 35.1349C60.3199 38.9849 60.1898 41.9229 59.0077 44.0748C57.8178 46.241 55.4939 47.7366 52.4787 48.5445L52.7583 49.5877C55.9391 48.7354 58.5728 47.1098 59.9543 44.5948C61.3436 42.0656 61.3987 38.7627 59.6822 34.7134L58.6879 35.1349ZM30.0924 31.6642C30.4393 32.9589 31.751 33.76 33.045 33.4133L32.7655 32.3701C32.0758 32.5549 31.3358 32.1318 31.1356 31.3847L30.0924 31.6642ZM31.7749 28.6731C30.4809 29.0199 29.7455 30.3695 30.0924 31.6642L31.1356 31.3847C30.9355 30.6376 31.3647 29.9012 32.0544 29.7163L31.7749 28.6731ZM34.7275 30.4222C34.3806 29.1276 33.0689 28.3264 31.7749 28.6731L32.0544 29.7163C32.7442 29.5315 33.4841 29.9547 33.6843 30.7018L34.7275 30.4222ZM33.045 33.4133C34.3391 33.0666 35.0744 31.7169 34.7275 30.4222L33.6843 30.7018C33.8845 31.4489 33.4552 32.1853 32.7655 32.3701L33.045 33.4133ZM44.5288 29.2185C43.839 29.4033 43.0991 28.9801 42.8989 28.233L41.8557 28.5126C42.2026 29.8072 43.5143 30.6084 44.8083 30.2617L44.5288 29.2185ZM45.4476 27.5501C45.6478 28.2972 45.2185 29.0336 44.5288 29.2185L44.8083 30.2617C46.1023 29.9149 46.8377 28.5653 46.4908 27.2706L45.4476 27.5501ZM43.8177 26.5647C44.5074 26.3799 45.2474 26.803 45.4476 27.5501L46.4908 27.2706C46.1439 25.9759 44.8322 25.1748 43.5382 25.5215L43.8177 26.5647ZM42.8989 28.233C42.6987 27.4859 43.128 26.7495 43.8177 26.5647L43.5382 25.5215C42.2442 25.8682 41.5088 27.2179 41.8557 28.5126L42.8989 28.233Z" fill="url(#paint2_linear_725_1899)" mask="url(#path-4-outside-1_725_1899)"/>
</g>
<defs>
<filter id="filter0_f_725_1899" x="3.23898" y="13.0188" width="38.5145" height="41.4154" filterUnits="userSpaceOnUse" color-interpolation-filters="sRGB">
<feFlood flood-opacity="0" result="BackgroundImageFix"/>
<feBlend mode="normal" in="SourceGraphic" in2="BackgroundImageFix" result="shape"/>
<feGaussianBlur stdDeviation="6.48" result="effect1_foregroundBlur_725_1899"/>
</filter>
<filter id="filter1_bd_725_1899" x="16.5082" y="1.61387" width="37.6869" height="39.4737" filterUnits="userSpaceOnUse" color-interpolation-filters="sRGB">
<feFlood flood-opacity="0" result="BackgroundImageFix"/>
<feGaussianBlur in="BackgroundImageFix" stdDeviation="4.05"/>
<feComposite in2="SourceAlpha" operator="in" result="effect1_backgroundBlur_725_1899"/>
<feColorMatrix in="SourceAlpha" type="matrix" values="0 0 0 0 0 0 0 0 0 0 0 0 0 0 0 0 0 0 127 0" result="hardAlpha"/>
<feOffset dx="2.7" dy="2.7"/>
<feGaussianBlur stdDeviation="2.7"/>
<feColorMatrix type="matrix" values="0 0 0 0 0.15375 0 0 0 0 0.522433 0 0 0 0 0.9 0 0 0 0.5 0"/>
<feBlend mode="normal" in2="effect1_backgroundBlur_725_1899" result="effect2_dropShadow_725_1899"/>
<feBlend mode="normal" in="SourceGraphic" in2="effect2_dropShadow_725_1899" result="shape"/>
</filter>
<filter id="filter2_b_725_1899" x="7.65267" y="4.39083" width="66.2917" height="63.3407" filterUnits="userSpaceOnUse" color-interpolation-filters="sRGB">
<feFlood flood-opacity="0" result="BackgroundImageFix"/>
<feGaussianBlur in="BackgroundImageFix" stdDeviation="6.48"/>
<feComposite in2="SourceAlpha" operator="in" result="effect1_backgroundBlur_725_1899"/>
<feBlend mode="normal" in="SourceGraphic" in2="effect1_backgroundBlur_725_1899" result="shape"/>
</filter>
<linearGradient id="paint0_linear_725_1899" x1="27.1065" y1="12.4967" x2="18.0612" y2="46.2545" gradientUnits="userSpaceOnUse">
<stop stop-color="#AF84E7"/>
<stop offset="1" stop-color="#9350E7"/>
</linearGradient>
<linearGradient id="paint1_linear_725_1899" x1="49.0298" y1="11.1408" x2="20.371" y2="19.3" gradientUnits="userSpaceOnUse">
<stop stop-color="white"/>
<stop offset="1" stop-color="white" stop-opacity="0.2"/>
</linearGradient>
<linearGradient id="paint2_linear_725_1899" x1="24.4859" y1="27.7405" x2="50.2484" y2="50.1873" gradientUnits="userSpaceOnUse">
<stop stop-color="white" stop-opacity="0.25"/>
<stop offset="1" stop-color="white" stop-opacity="0"/>
</linearGradient>
</defs>
</svg>
