<svg width="65" height="64" viewBox="0 0 65 64" fill="none" xmlns="http://www.w3.org/2000/svg">
<path d="M28.715 8.10377L12.7263 14.3901C6.47466 16.8481 3.99568 22.8903 6.56241 29.4185L12.4862 44.4852C15.0457 50.995 20.976 53.7309 27.2276 51.2729L43.2163 44.9866C49.468 42.5286 51.9285 36.4937 49.3691 29.9839L43.4453 14.9172C40.8785 8.38895 34.9667 5.64579 28.715 8.10377Z" fill="url(#paint0_linear_725_1797)"/>
<g opacity="0.5" filter="url(#filter0_f_725_1797)">
<path d="M30.2159 14.7257L18.2411 19.4109C13.8975 21.1104 12.2435 24.3362 13.7428 28.1681L18.8206 41.1463C20.3444 45.041 23.7287 46.2375 28.0723 44.5381L40.0471 39.8528C44.4607 38.126 46.0629 34.9784 44.5391 31.0837L39.4613 18.1055C37.962 14.2736 34.6295 12.9988 30.2159 14.7257Z" fill="#8237FF"/>
</g>
<g filter="url(#filter1_b_725_1797)">
<mask id="path-3-outside-1_725_1797" maskUnits="userSpaceOnUse" x="18.3406" y="16.6733" width="42" height="42" fill="black">
<rect fill="white" x="18.3406" y="16.6733" width="42" height="42"/>
<path d="M47.7562 17.6733H30.576C23.8585 17.6733 19.3406 22.3895 19.3406 29.4042V45.5935C19.3406 52.5884 23.8585 57.3046 30.576 57.3046H47.7562C54.4736 57.3046 58.9718 52.5884 58.9718 45.5935V29.4042C58.9718 22.3895 54.4736 17.6733 47.7562 17.6733Z"/>
</mask>
<path d="M47.7562 17.6733H30.576C23.8585 17.6733 19.3406 22.3895 19.3406 29.4042V45.5935C19.3406 52.5884 23.8585 57.3046 30.576 57.3046H47.7562C54.4736 57.3046 58.9718 52.5884 58.9718 45.5935V29.4042C58.9718 22.3895 54.4736 17.6733 47.7562 17.6733Z" fill="#3EA0FE" fill-opacity="0.35"/>
<path d="M47.7562 18.2133C48.0544 18.2133 48.2962 17.9716 48.2962 17.6733C48.2962 17.3751 48.0544 17.1333 47.7562 17.1333V18.2133ZM47.7562 17.1333C47.4579 17.1333 47.2162 17.3751 47.2162 17.6733C47.2162 17.9716 47.4579 18.2133 47.7562 18.2133V17.1333ZM47.7562 17.1333H30.576V18.2133H47.7562V17.1333ZM30.576 17.1333C27.0862 17.1333 24.131 18.3614 22.0493 20.5347C19.9695 22.706 18.8006 25.7798 18.8006 29.4042H19.8806C19.8806 26.0139 20.9706 23.2222 22.8292 21.2818C24.6859 19.3434 27.3484 18.2133 30.576 18.2133V17.1333ZM18.8006 29.4042V45.5935H19.8806V29.4042H18.8006ZM18.8006 45.5935C18.8006 49.2084 19.9698 52.2772 22.0495 54.4459C24.1311 56.6165 27.0862 57.8446 30.576 57.8446V56.7646C27.3484 56.7646 24.6857 55.6345 22.829 53.6984C20.9704 51.7603 19.8806 48.9735 19.8806 45.5935H18.8006ZM30.576 57.8446H47.7562V56.7646H30.576V57.8446ZM47.7562 57.8446C51.2461 57.8446 54.1965 56.6165 56.2732 54.4454C58.348 52.2765 59.5118 49.2078 59.5118 45.5935H58.4318C58.4318 48.9742 57.3465 51.761 55.4928 53.6989C53.6411 55.6346 50.9837 56.7646 47.7562 56.7646V57.8446ZM59.5118 45.5935V29.4042H58.4318V45.5935H59.5118ZM59.5118 29.4042C59.5118 25.7804 58.3482 22.7067 56.2735 20.5352C54.1966 18.3615 51.2461 17.1333 47.7562 17.1333V18.2133C50.9837 18.2133 53.641 19.3433 55.4926 21.2813C57.3463 23.2215 58.4318 26.0132 58.4318 29.4042H59.5118Z" fill="url(#paint1_linear_725_1797)" mask="url(#path-3-outside-1_725_1797)"/>
</g>
<g filter="url(#filter2_bd_725_1797)">
<mask id="path-5-inside-2_725_1797" fill="white">
<path fill-rule="evenodd" clip-rule="evenodd" d="M49.0049 42.5645C49.8253 42.5645 50.4911 41.8987 50.4911 41.0783V37.4084C50.4911 36.5881 49.8253 35.9223 49.0049 35.9223H37.7258C37.0838 33.8079 35.1379 32.2544 32.8155 32.2544C29.974 32.2544 27.6615 34.5669 27.6615 37.4084C27.6615 40.252 29.974 42.5645 32.8155 42.5645C35.1379 42.5645 37.0838 41.0109 37.7258 38.8946H41.9109V41.0783C41.9109 41.8987 42.5767 42.5645 43.3971 42.5645C44.2174 42.5645 44.8832 41.8987 44.8832 41.0783V38.8946H47.5187V41.0783C47.5187 41.8987 48.1845 42.5645 49.0049 42.5645ZM30.6319 37.4082C30.6319 36.2034 31.6127 35.2245 32.8155 35.2245C34.0183 35.2245 34.9992 36.2034 34.9992 37.4082C34.9992 38.611 34.0183 39.5899 32.8155 39.5899C31.6127 39.5899 30.6319 38.611 30.6319 37.4082Z"/>
</mask>
<path fill-rule="evenodd" clip-rule="evenodd" d="M49.0049 42.5645C49.8253 42.5645 50.4911 41.8987 50.4911 41.0783V37.4084C50.4911 36.5881 49.8253 35.9223 49.0049 35.9223H37.7258C37.0838 33.8079 35.1379 32.2544 32.8155 32.2544C29.974 32.2544 27.6615 34.5669 27.6615 37.4084C27.6615 40.252 29.974 42.5645 32.8155 42.5645C35.1379 42.5645 37.0838 41.0109 37.7258 38.8946H41.9109V41.0783C41.9109 41.8987 42.5767 42.5645 43.3971 42.5645C44.2174 42.5645 44.8832 41.8987 44.8832 41.0783V38.8946H47.5187V41.0783C47.5187 41.8987 48.1845 42.5645 49.0049 42.5645ZM30.6319 37.4082C30.6319 36.2034 31.6127 35.2245 32.8155 35.2245C34.0183 35.2245 34.9992 36.2034 34.9992 37.4082C34.9992 38.611 34.0183 39.5899 32.8155 39.5899C31.6127 39.5899 30.6319 38.611 30.6319 37.4082Z" fill="url(#paint2_linear_725_1797)"/>
<path d="M37.7258 35.9223L37.6225 35.9536L37.6458 36.0303H37.7258V35.9223ZM37.7258 38.8946V38.7866H37.6458L37.6225 38.8633L37.7258 38.8946ZM41.9109 38.8946H42.0189V38.7866H41.9109V38.8946ZM44.8832 38.8946V38.7866H44.7752V38.8946H44.8832ZM47.5187 38.8946H47.6267V38.7866H47.5187V38.8946ZM50.3831 41.0783C50.3831 41.839 49.7656 42.4565 49.0049 42.4565V42.6725C49.8849 42.6725 50.5991 41.9583 50.5991 41.0783H50.3831ZM50.3831 37.4084V41.0783H50.5991V37.4084H50.3831ZM49.0049 36.0303C49.7656 36.0303 50.3831 36.6477 50.3831 37.4084H50.5991C50.5991 36.5284 49.8849 35.8143 49.0049 35.8143V36.0303ZM37.7258 36.0303H49.0049V35.8143H37.7258V36.0303ZM32.8155 32.3624C35.0881 32.3624 36.9936 33.8826 37.6225 35.9536L37.8292 35.8909C37.174 33.7333 35.1878 32.1464 32.8155 32.1464V32.3624ZM27.7695 37.4084C27.7695 34.6265 30.0336 32.3624 32.8155 32.3624V32.1464C29.9143 32.1464 27.5535 34.5072 27.5535 37.4084H27.7695ZM32.8155 42.4565C30.0337 42.4565 27.7695 40.1924 27.7695 37.4084H27.5535C27.5535 40.3116 29.9143 42.6725 32.8155 42.6725V42.4565ZM37.6225 38.8633C36.9936 40.9363 35.0881 42.4565 32.8155 42.4565V42.6725C35.1878 42.6725 37.174 41.0856 37.8292 38.926L37.6225 38.8633ZM41.9109 38.7866H37.7258V39.0026H41.9109V38.7866ZM42.0189 41.0783V38.8946H41.8029V41.0783H42.0189ZM43.3971 42.4565C42.6364 42.4565 42.0189 41.839 42.0189 41.0783H41.8029C41.8029 41.9583 42.5171 42.6725 43.3971 42.6725V42.4565ZM44.7752 41.0783C44.7752 41.839 44.1578 42.4565 43.3971 42.4565V42.6725C44.2771 42.6725 44.9912 41.9583 44.9912 41.0783H44.7752ZM44.7752 38.8946V41.0783H44.9912V38.8946H44.7752ZM47.5187 38.7866H44.8832V39.0026H47.5187V38.7866ZM47.6267 41.0783V38.8946H47.4107V41.0783H47.6267ZM49.0049 42.4565C48.2442 42.4565 47.6267 41.839 47.6267 41.0783H47.4107C47.4107 41.9583 48.1249 42.6725 49.0049 42.6725V42.4565ZM32.8155 35.1165C31.5531 35.1165 30.5239 36.1437 30.5239 37.4082H30.7399C30.7399 36.2631 31.6723 35.3325 32.8155 35.3325V35.1165ZM35.1072 37.4082C35.1072 36.1437 34.0779 35.1165 32.8155 35.1165V35.3325C33.9588 35.3325 34.8912 36.2631 34.8912 37.4082H35.1072ZM32.8155 39.6979C34.0779 39.6979 35.1072 38.6708 35.1072 37.4082H34.8912C34.8912 38.5512 33.9588 39.4819 32.8155 39.4819V39.6979ZM30.5239 37.4082C30.5239 38.6708 31.5532 39.6979 32.8155 39.6979V39.4819C31.6722 39.4819 30.7399 38.5512 30.7399 37.4082H30.5239Z" fill="url(#paint3_linear_725_1797)" fill-opacity="0.5" mask="url(#path-5-inside-2_725_1797)"/>
</g>
<defs>
<filter id="filter0_f_725_1797" x="0.241783" y="1.00973" width="57.819" height="57.2413" filterUnits="userSpaceOnUse" color-interpolation-filters="sRGB">
<feFlood flood-opacity="0" result="BackgroundImageFix"/>
<feBlend mode="normal" in="SourceGraphic" in2="BackgroundImageFix" result="shape"/>
<feGaussianBlur stdDeviation="6.48" result="effect1_foregroundBlur_725_1797"/>
</filter>
<filter id="filter1_b_725_1797" x="5.84054" y="4.1733" width="66.6313" height="66.6312" filterUnits="userSpaceOnUse" color-interpolation-filters="sRGB">
<feFlood flood-opacity="0" result="BackgroundImageFix"/>
<feGaussianBlur in="BackgroundImageFix" stdDeviation="6.48"/>
<feComposite in2="SourceAlpha" operator="in" result="effect1_backgroundBlur_725_1797"/>
<feBlend mode="normal" in="SourceGraphic" in2="effect1_backgroundBlur_725_1797" result="shape"/>
</filter>
<filter id="filter2_bd_725_1797" x="19.5615" y="24.1544" width="39.0296" height="26.5101" filterUnits="userSpaceOnUse" color-interpolation-filters="sRGB">
<feFlood flood-opacity="0" result="BackgroundImageFix"/>
<feGaussianBlur in="BackgroundImageFix" stdDeviation="4.05"/>
<feComposite in2="SourceAlpha" operator="in" result="effect1_backgroundBlur_725_1797"/>
<feColorMatrix in="SourceAlpha" type="matrix" values="0 0 0 0 0 0 0 0 0 0 0 0 0 0 0 0 0 0 127 0" result="hardAlpha"/>
<feOffset dx="2.7" dy="2.7"/>
<feGaussianBlur stdDeviation="2.7"/>
<feColorMatrix type="matrix" values="0 0 0 0 0.376471 0 0 0 0 0.574118 0 0 0 0 0.870588 0 0 0 0.5 0"/>
<feBlend mode="normal" in2="effect1_backgroundBlur_725_1797" result="effect2_dropShadow_725_1797"/>
<feBlend mode="normal" in="SourceGraphic" in2="effect2_dropShadow_725_1797" result="shape"/>
</filter>
<linearGradient id="paint0_linear_725_1797" x1="20.7114" y1="11.2506" x2="35.2128" y2="48.1334" gradientUnits="userSpaceOnUse">
<stop stop-color="#AF84E7"/>
<stop offset="1" stop-color="#9350E7"/>
</linearGradient>
<linearGradient id="paint1_linear_725_1797" x1="25.6492" y1="22.2904" x2="50.9297" y2="53.6009" gradientUnits="userSpaceOnUse">
<stop stop-color="white" stop-opacity="0.25"/>
<stop offset="1" stop-color="white" stop-opacity="0"/>
</linearGradient>
<linearGradient id="paint2_linear_725_1797" x1="48.8725" y1="34.1162" x2="23.5475" y2="35.9445" gradientUnits="userSpaceOnUse">
<stop stop-color="white"/>
<stop offset="1" stop-color="white" stop-opacity="0.2"/>
</linearGradient>
<linearGradient id="paint3_linear_725_1797" x1="30.1207" y1="35.7129" x2="49.5039" y2="35.9499" gradientUnits="userSpaceOnUse">
<stop stop-color="white"/>
<stop offset="1" stop-color="white" stop-opacity="0"/>
</linearGradient>
</defs>
</svg>
