<svg width="66" height="65" viewBox="0 0 66 65" fill="none" xmlns="http://www.w3.org/2000/svg">
<path d="M30.6153 8.57405L15.5938 12.5169C9.72032 14.0586 6.87492 19.1349 8.51835 25.143L12.3112 39.0094C13.95 45.0006 19.0052 48.0031 24.8787 46.4615L39.9002 42.5186C45.7737 40.9769 48.6017 35.9052 46.963 29.914L43.1701 16.0476C41.5267 10.0394 36.4888 7.03237 30.6153 8.57405Z" fill="url(#paint0_linear_725_1817)"/>
<g opacity="0.5" filter="url(#filter0_f_725_1817)">
<rect x="17.6584" y="41.0608" width="23.5713" height="24.5442" rx="7.02" transform="rotate(-105 17.6584 41.0608)" fill="#8237FF"/>
</g>
<g filter="url(#filter1_b_725_1817)">
<path d="M47.1209 17.7944H29.3995C22.4704 17.7944 17.8101 22.5598 17.8101 29.6479V46.0065C17.8101 53.0745 22.4704 57.84 29.3995 57.84H47.1209C54.05 57.84 58.6899 53.0745 58.6899 46.0065V29.6479C58.6899 22.5598 54.05 17.7944 47.1209 17.7944Z" fill="#3EA0FE" fill-opacity="0.35"/>
<path d="M47.1209 17.5244H29.3995C25.8711 17.5244 22.9012 18.7391 20.8133 20.8744C18.7259 23.0092 17.5401 26.0437 17.5401 29.6479V46.0065C17.5401 49.6009 18.726 52.6304 20.8134 54.7626C22.9013 56.8953 25.8711 58.11 29.3995 58.11H47.1209C50.6493 58.11 53.6142 56.8953 55.697 54.7624C57.7792 52.63 58.9599 49.6005 58.9599 46.0065V29.6479C58.9599 26.0441 57.7793 23.0096 55.6971 20.8746C53.6142 18.7391 50.6493 17.5244 47.1209 17.5244Z" stroke="url(#paint1_linear_725_1817)" stroke-width="0.54" stroke-linecap="round" stroke-linejoin="round"/>
</g>
<g filter="url(#filter2_bd_725_1817)">
<mask id="path-5-inside-1_725_1817" fill="white">
<path fill-rule="evenodd" clip-rule="evenodd" d="M44.7683 45.2447C45.0156 45.3869 45.2854 45.455 45.5532 45.455C46.0744 45.455 46.5834 45.1927 46.8716 44.7221C47.013 44.4895 47.0828 44.2348 47.0874 43.9823C47.0973 43.4607 46.8292 42.9486 46.3402 42.6612L39.0636 38.4103L39.0635 38.4103V29.1584C39.0635 28.3295 38.3768 27.6567 37.5306 27.6567C36.6843 27.6567 35.9976 28.3295 35.9976 29.1584V39.2639C35.9976 39.7925 36.2817 40.2831 36.7436 40.5554L44.7683 45.2447Z"/>
</mask>
<path fill-rule="evenodd" clip-rule="evenodd" d="M44.7683 45.2447C45.0156 45.3869 45.2854 45.455 45.5532 45.455C46.0744 45.455 46.5834 45.1927 46.8716 44.7221C47.013 44.4895 47.0828 44.2348 47.0874 43.9823C47.0973 43.4607 46.8292 42.9486 46.3402 42.6612L39.0636 38.4103L39.0635 38.4103V29.1584C39.0635 28.3295 38.3768 27.6567 37.5306 27.6567C36.6843 27.6567 35.9976 28.3295 35.9976 29.1584V39.2639C35.9976 39.7925 36.2817 40.2831 36.7436 40.5554L44.7683 45.2447Z" fill="url(#paint2_linear_725_1817)"/>
<path d="M44.7683 45.2447L44.6593 45.4312L44.6607 45.432L44.7683 45.2447ZM46.8716 44.7221L47.0558 44.835L47.0562 44.8343L46.8716 44.7221ZM47.0874 43.9823L46.8715 43.9782L46.8715 43.9783L47.0874 43.9823ZM46.3402 42.6612L46.4496 42.475L46.4491 42.4747L46.3402 42.6612ZM39.0636 38.4103L39.1725 38.2238L39.0936 38.1777L39.0055 38.2023L39.0636 38.4103ZM39.0635 38.4103H38.8475V38.6949L39.1216 38.6184L39.0635 38.4103ZM36.7436 40.5554L36.6339 40.7415L36.6346 40.7419L36.7436 40.5554ZM45.5532 45.239C45.3224 45.239 45.0898 45.1804 44.876 45.0575L44.6607 45.432C44.9415 45.5934 45.2485 45.671 45.5532 45.671V45.239ZM46.6874 44.6093C46.4405 45.0124 46.0032 45.239 45.5532 45.239V45.671C46.1456 45.671 46.7263 45.3729 47.0558 44.835L46.6874 44.6093ZM46.8715 43.9783C46.8675 44.1934 46.8081 44.4107 46.687 44.6099L47.0562 44.8343C47.2178 44.5684 47.2981 44.2762 47.3034 43.9862L46.8715 43.9783ZM47.3034 43.9863C47.3147 43.3882 47.0072 42.8027 46.4496 42.475L46.2307 42.8474C46.6512 43.0945 46.8799 43.5331 46.8715 43.9782L47.3034 43.9863ZM46.4491 42.4747L39.1725 38.2238L38.9546 38.5969L46.2312 42.8477L46.4491 42.4747ZM39.0055 38.2023L39.0055 38.2023L39.1216 38.6184L39.1216 38.6184L39.0055 38.2023ZM38.8475 29.1584V38.4103H39.2795V29.1584H38.8475ZM37.5306 27.8727C38.2617 27.8727 38.8475 28.453 38.8475 29.1584H39.2795C39.2795 28.206 38.4918 27.4407 37.5306 27.4407V27.8727ZM36.2136 29.1584C36.2136 28.453 36.7994 27.8727 37.5306 27.8727V27.4407C36.5693 27.4407 35.7816 28.206 35.7816 29.1584H36.2136ZM36.2136 39.2639V29.1584H35.7816V39.2639H36.2136ZM36.8533 40.3693C36.4558 40.135 36.2136 39.7144 36.2136 39.2639H35.7816C35.7816 39.8707 36.1076 40.4312 36.6339 40.7415L36.8533 40.3693ZM44.8773 45.0582L36.8526 40.3689L36.6346 40.7419L44.6593 45.4312L44.8773 45.0582Z" fill="url(#paint3_linear_725_1817)" mask="url(#path-5-inside-1_725_1817)"/>
</g>
<defs>
<filter id="filter0_f_725_1817" x="0.173668" y="0.556114" width="52.5767" height="51.8887" filterUnits="userSpaceOnUse" color-interpolation-filters="sRGB">
<feFlood flood-opacity="0" result="BackgroundImageFix"/>
<feBlend mode="normal" in="SourceGraphic" in2="BackgroundImageFix" result="shape"/>
<feGaussianBlur stdDeviation="6.48" result="effect1_foregroundBlur_725_1817"/>
</filter>
<filter id="filter1_b_725_1817" x="4.31002" y="4.2944" width="67.8798" height="67.0455" filterUnits="userSpaceOnUse" color-interpolation-filters="sRGB">
<feFlood flood-opacity="0" result="BackgroundImageFix"/>
<feGaussianBlur in="BackgroundImageFix" stdDeviation="6.48"/>
<feComposite in2="SourceAlpha" operator="in" result="effect1_backgroundBlur_725_1817"/>
<feBlend mode="normal" in="SourceGraphic" in2="effect1_backgroundBlur_725_1817" result="shape"/>
</filter>
<filter id="filter2_bd_725_1817" x="27.8976" y="19.5567" width="27.2901" height="33.9983" filterUnits="userSpaceOnUse" color-interpolation-filters="sRGB">
<feFlood flood-opacity="0" result="BackgroundImageFix"/>
<feGaussianBlur in="BackgroundImageFix" stdDeviation="4.05"/>
<feComposite in2="SourceAlpha" operator="in" result="effect1_backgroundBlur_725_1817"/>
<feColorMatrix in="SourceAlpha" type="matrix" values="0 0 0 0 0 0 0 0 0 0 0 0 0 0 0 0 0 0 127 0" result="hardAlpha"/>
<feOffset dx="2.7" dy="2.7"/>
<feGaussianBlur stdDeviation="2.7"/>
<feColorMatrix type="matrix" values="0 0 0 0 0.359375 0 0 0 0 0.417188 0 0 0 0 0.9375 0 0 0 0.5 0"/>
<feBlend mode="normal" in2="effect1_backgroundBlur_725_1817" result="effect2_dropShadow_725_1817"/>
<feBlend mode="normal" in="SourceGraphic" in2="effect2_dropShadow_725_1817" result="shape"/>
</filter>
<linearGradient id="paint0_linear_725_1817" x1="23.0959" y1="10.5478" x2="32.0299" y2="44.5844" gradientUnits="userSpaceOnUse">
<stop stop-color="#AF84E7"/>
<stop offset="1" stop-color="#9350E7"/>
</linearGradient>
<linearGradient id="paint1_linear_725_1817" x1="24.3175" y1="22.4598" x2="49.7463" y2="54.6102" gradientUnits="userSpaceOnUse">
<stop stop-color="white" stop-opacity="0.25"/>
<stop offset="1" stop-color="white" stop-opacity="0"/>
</linearGradient>
<linearGradient id="paint2_linear_725_1817" x1="46.3014" y1="30.8707" x2="33.94" y2="31.1219" gradientUnits="userSpaceOnUse">
<stop stop-color="white"/>
<stop offset="1" stop-color="white" stop-opacity="0.2"/>
</linearGradient>
<linearGradient id="paint3_linear_725_1817" x1="37.7629" y1="29.7303" x2="48.9978" y2="38.4005" gradientUnits="userSpaceOnUse">
<stop stop-color="white" stop-opacity="0.25"/>
<stop offset="1" stop-color="white" stop-opacity="0"/>
</linearGradient>
</defs>
</svg>
