<svg width="96" height="96" viewBox="0 0 96 96" fill="none" xmlns="http://www.w3.org/2000/svg">
<path d="M20.9723 19.5366L46.0038 12.8294C55.1256 10.3852 61.7333 14.3725 64.274 23.8542L71.2391 49.8485C73.7797 59.3303 70.051 66.0872 60.9291 68.5314L35.8976 75.2386C26.7758 77.6828 20.1919 73.6891 17.6512 64.2074L10.6861 38.2131C8.14548 28.7313 11.8505 21.9807 20.9723 19.5366Z" fill="url(#paint0_linear_743_949)"/>
<g opacity="0.5" filter="url(#filter0_f_743_949)">
<path d="M28.0112 29.1351L45.0118 24.5798C51.2071 22.9198 55.6176 25.3396 57.2069 31.2707L61.5637 47.5307C63.1529 53.4617 60.5432 57.7626 54.3479 59.4227L37.3473 63.978C31.152 65.638 26.7577 63.2138 25.1685 57.2828L20.8116 41.0228C19.2224 35.0917 21.8159 30.7951 28.0112 29.1351Z" fill="#8237FF"/>
</g>
<g filter="url(#filter1_b_743_949)">
<mask id="path-3-outside-1_743_949" maskUnits="userSpaceOnUse" x="24.6926" y="24.3267" width="61" height="61" fill="black">
<rect fill="white" x="24.6926" y="24.3267" width="61" height="61"/>
<path d="M67.9983 25.3267H42.4202C32.4191 25.3267 25.6926 32.3481 25.6926 42.7918V66.8948C25.6926 77.309 32.4191 84.3304 42.4202 84.3304H67.9983C77.9994 84.3304 84.6964 77.309 84.6964 66.8948V42.7918C84.6964 32.3481 77.9994 25.3267 67.9983 25.3267Z"/>
</mask>
<path d="M67.9983 25.3267H42.4202C32.4191 25.3267 25.6926 32.3481 25.6926 42.7918V66.8948C25.6926 77.309 32.4191 84.3304 42.4202 84.3304H67.9983C77.9994 84.3304 84.6964 77.309 84.6964 66.8948V42.7918C84.6964 32.3481 77.9994 25.3267 67.9983 25.3267Z" fill="#3EA0FE" fill-opacity="0.35"/>
<path d="M67.9983 26.1367C68.4457 26.1367 68.8083 25.774 68.8083 25.3267C68.8083 24.8793 68.4457 24.5167 67.9983 24.5167V26.1367ZM67.9983 24.5167C67.551 24.5167 67.1883 24.8793 67.1883 25.3267C67.1883 25.774 67.551 26.1367 67.9983 26.1367V24.5167ZM67.9983 24.5167H42.4202V26.1367H67.9983V24.5167ZM42.4202 24.5167C37.223 24.5167 32.8215 26.3455 29.721 29.5826C26.6234 32.8165 24.8826 37.3944 24.8826 42.7918H26.5026C26.5026 37.7455 28.1251 33.5908 30.8909 30.7031C33.6539 27.8185 37.6163 26.1367 42.4202 26.1367V24.5167ZM24.8826 42.7918V66.8948H26.5026V42.7918H24.8826ZM24.8826 66.8948C24.8826 72.278 26.6238 76.8485 29.7214 80.0786C32.8218 83.3116 37.223 85.1404 42.4202 85.1404V83.5204C37.6162 83.5204 33.6537 81.8385 30.8906 78.9573C28.1247 76.0731 26.5026 71.9257 26.5026 66.8948H24.8826ZM42.4202 85.1404H67.9983V83.5204H42.4202V85.1404ZM67.9983 85.1404C73.1956 85.1404 77.5899 83.3114 80.6831 80.0778C83.7732 76.8474 85.5064 72.2771 85.5064 66.8948H83.8864C83.8864 71.9267 82.2711 76.0742 79.5124 78.958C76.7569 81.8386 72.8021 83.5204 67.9983 83.5204V85.1404ZM85.5064 66.8948V42.7918H83.8864V66.8948H85.5064ZM85.5064 42.7918C85.5064 37.3953 83.7736 32.8176 80.6834 29.5833C77.5901 26.3457 73.1957 24.5167 67.9983 24.5167V26.1367C72.8021 26.1367 76.7566 27.8184 79.5121 30.7024C82.2707 33.5897 83.8864 37.7445 83.8864 42.7918H85.5064Z" fill="url(#paint1_linear_743_949)" mask="url(#path-3-outside-1_743_949)"/>
</g>
<g filter="url(#filter2_bd_743_949)">
<mask id="path-5-inside-2_743_949" fill="white">
<path fill-rule="evenodd" clip-rule="evenodd" d="M37.5427 44.5804C37.5427 48.6631 40.861 51.9859 44.9449 51.9859C49.0257 51.9859 52.347 48.6631 52.347 44.5804C52.347 40.4976 49.0257 37.1748 44.9449 37.1748C40.861 37.1748 37.5427 40.4976 37.5427 44.5804ZM77.8986 71.7586C78.9591 69.2397 79.4744 66.1827 78.4825 63.6392C78.1518 62.7955 77.6574 62.0099 76.9633 61.319C75.1433 59.5123 73.4424 57.8248 71.4199 56.5776C68.2445 54.5966 65.793 57.3785 65.1317 58.2681C64.6042 58.979 64.1379 59.7505 63.6652 60.5326C63.5667 60.6956 63.468 60.859 63.3683 61.0224L63.3448 61.0614C61.9384 63.3909 60.3234 66.066 57.5389 67.6256C53.4699 69.8786 50.381 67.8029 48.1588 66.2927C47.3248 65.7302 46.5145 65.1983 45.7073 64.8437C43.7175 63.9847 41.9273 64.9629 39.2702 68.3378C37.8762 70.1017 36.494 71.8503 35.094 73.5928C34.257 74.6353 34.4566 76.2432 35.5855 76.9402C37.3877 78.0499 39.586 78.646 42.0703 78.646H67.0351C68.4441 78.646 69.856 78.4534 71.2024 78.0132C74.2348 77.0228 76.6416 74.7545 77.8986 71.7586Z"/>
</mask>
<path fill-rule="evenodd" clip-rule="evenodd" d="M37.5427 44.5804C37.5427 48.6631 40.861 51.9859 44.9449 51.9859C49.0257 51.9859 52.347 48.6631 52.347 44.5804C52.347 40.4976 49.0257 37.1748 44.9449 37.1748C40.861 37.1748 37.5427 40.4976 37.5427 44.5804ZM77.8986 71.7586C78.9591 69.2397 79.4744 66.1827 78.4825 63.6392C78.1518 62.7955 77.6574 62.0099 76.9633 61.319C75.1433 59.5123 73.4424 57.8248 71.4199 56.5776C68.2445 54.5966 65.793 57.3785 65.1317 58.2681C64.6042 58.979 64.1379 59.7505 63.6652 60.5326C63.5667 60.6956 63.468 60.859 63.3683 61.0224L63.3448 61.0614C61.9384 63.3909 60.3234 66.066 57.5389 67.6256C53.4699 69.8786 50.381 67.8029 48.1588 66.2927C47.3248 65.7302 46.5145 65.1983 45.7073 64.8437C43.7175 63.9847 41.9273 64.9629 39.2702 68.3378C37.8762 70.1017 36.494 71.8503 35.094 73.5928C34.257 74.6353 34.4566 76.2432 35.5855 76.9402C37.3877 78.0499 39.586 78.646 42.0703 78.646H67.0351C68.4441 78.646 69.856 78.4534 71.2024 78.0132C74.2348 77.0228 76.6416 74.7545 77.8986 71.7586Z" fill="url(#paint2_linear_743_949)"/>
<path d="M78.4825 63.6392L78.6334 63.5804L78.6333 63.5801L78.4825 63.6392ZM77.8986 71.7586L77.7493 71.6958L77.7493 71.6959L77.8986 71.7586ZM76.9633 61.319L77.0776 61.2042L77.0774 61.204L76.9633 61.319ZM71.4199 56.5776L71.3341 56.715L71.3348 56.7155L71.4199 56.5776ZM65.1317 58.2681L65.0017 58.1714L65.0016 58.1716L65.1317 58.2681ZM63.6652 60.5326L63.8039 60.6164L63.6652 60.5326ZM63.3683 61.0224L63.23 60.9381L63.2296 60.9387L63.3683 61.0224ZM63.3448 61.0614L63.2061 60.9777V60.9777L63.3448 61.0614ZM57.5389 67.6256L57.6174 67.7673L57.6181 67.7669L57.5389 67.6256ZM48.1588 66.2927L48.2499 66.1587L48.2494 66.1584L48.1588 66.2927ZM45.7073 64.8437L45.7725 64.6954L45.7715 64.695L45.7073 64.8437ZM39.2702 68.3378L39.3973 68.4383L39.3975 68.438L39.2702 68.3378ZM35.094 73.5928L34.9677 73.4913L34.9677 73.4914L35.094 73.5928ZM35.5855 76.9402L35.5004 77.0781L35.5006 77.0782L35.5855 76.9402ZM71.2024 78.0132L71.1521 77.8592L71.1521 77.8592L71.2024 78.0132ZM44.9449 51.8239C40.9506 51.8239 37.7047 48.5738 37.7047 44.5804H37.3807C37.3807 48.7525 40.7714 52.1479 44.9449 52.1479V51.8239ZM52.185 44.5804C52.185 48.5737 48.9362 51.8239 44.9449 51.8239V52.1479C49.1153 52.1479 52.509 48.7525 52.509 44.5804H52.185ZM44.9449 37.3368C48.9362 37.3368 52.185 40.587 52.185 44.5804H52.509C52.509 40.4082 49.1153 37.0128 44.9449 37.0128V37.3368ZM37.7047 44.5804C37.7047 40.587 40.9506 37.3368 44.9449 37.3368V37.0128C40.7714 37.0128 37.3807 40.4083 37.3807 44.5804H37.7047ZM78.3315 63.6981C79.3017 66.1858 78.8019 69.1955 77.7493 71.6958L78.0479 71.8215C79.1163 69.2838 79.647 66.1795 78.6334 63.5804L78.3315 63.6981ZM76.849 61.4338C77.5263 62.108 78.0088 62.8744 78.3316 63.6983L78.6333 63.5801C78.2949 62.7166 77.7884 61.9117 77.0776 61.2042L76.849 61.4338ZM71.3348 56.7155C73.3388 57.9512 75.0266 59.6247 76.8492 61.4339L77.0774 61.204C75.26 59.3999 73.5461 57.6984 71.5049 56.4397L71.3348 56.7155ZM65.2617 58.3647C65.5863 57.9281 66.3467 57.0331 67.4068 56.4906C68.457 55.9532 69.8022 55.7594 71.3341 56.715L71.5056 56.4401C69.8621 55.4149 68.394 55.6215 67.2592 56.2022C66.1344 56.7778 65.3384 57.7185 65.0017 58.1714L65.2617 58.3647ZM63.8039 60.6164C64.2773 59.8331 64.7397 59.0683 65.2618 58.3646L65.0016 58.1716C64.4688 58.8897 63.9985 59.668 63.5266 60.4488L63.8039 60.6164ZM63.5066 61.1068C63.6065 60.943 63.7054 60.7793 63.8039 60.6164L63.5266 60.4488C63.4281 60.6118 63.3295 60.775 63.23 60.9381L63.5066 61.1068ZM63.4835 61.1451L63.507 61.1062L63.2296 60.9387L63.2061 60.9777L63.4835 61.1451ZM57.6181 67.7669C60.4456 66.1832 62.0804 63.4692 63.4835 61.1451L63.2061 60.9777C61.7964 63.3127 60.2012 65.9488 57.4597 67.4842L57.6181 67.7669ZM48.0678 66.4267C49.1763 67.1801 50.5252 68.0924 52.1136 68.5266C53.7107 68.9632 55.5439 68.9153 57.6174 67.7673L57.4604 67.4838C55.4649 68.5888 53.7191 68.6296 52.199 68.2141C50.6702 67.7961 49.3635 66.9155 48.2499 66.1587L48.0678 66.4267ZM45.6422 64.992C46.4341 65.3399 47.2329 65.8636 48.0682 66.427L48.2494 66.1584C47.4167 65.5968 46.595 65.0567 45.7725 64.6954L45.6422 64.992ZM39.3975 68.438C40.7231 66.7544 41.8181 65.688 42.8164 65.1454C43.8017 64.6097 44.6946 64.5829 45.6431 64.9924L45.7715 64.695C44.7303 64.2454 43.7331 64.2783 42.6616 64.8607C41.603 65.4362 40.4745 66.5464 39.1429 68.2376L39.3975 68.438ZM35.2203 73.6943C36.6208 71.9512 38.0033 70.2021 39.3973 68.4383L39.1431 68.2374C37.749 70.0014 36.3673 71.7495 34.9677 73.4913L35.2203 73.6943ZM35.6706 76.8024C34.6333 76.1619 34.4377 74.669 35.2203 73.6942L34.9677 73.4914C34.0763 74.6015 34.2799 76.3245 35.5004 77.0781L35.6706 76.8024ZM42.0703 78.484C39.6121 78.484 37.4439 77.8943 35.6705 76.8023L35.5006 77.0782C37.3314 78.2055 39.5599 78.808 42.0703 78.808V78.484ZM67.0351 78.484H42.0703V78.808H67.0351V78.484ZM71.1521 77.8592C69.8242 78.2934 68.4295 78.484 67.0351 78.484V78.808C68.4587 78.808 69.8879 78.6135 71.2528 78.1672L71.1521 77.8592ZM77.7493 71.6959C76.5097 74.6502 74.138 76.884 71.1521 77.8592L71.2527 78.1672C74.3316 77.1616 76.7735 74.8588 78.048 71.8213L77.7493 71.6959Z" fill="url(#paint3_linear_743_949)" fill-opacity="0.5" mask="url(#path-5-inside-2_743_949)"/>
</g>
<defs>
<filter id="filter0_f_743_949" x="0.914677" y="4.62836" width="80.5444" height="79.3005" filterUnits="userSpaceOnUse" color-interpolation-filters="sRGB">
<feFlood flood-opacity="0" result="BackgroundImageFix"/>
<feBlend mode="normal" in="SourceGraphic" in2="BackgroundImageFix" result="shape"/>
<feGaussianBlur stdDeviation="9.72" result="effect1_foregroundBlur_743_949"/>
</filter>
<filter id="filter1_b_743_949" x="5.44263" y="5.0766" width="99.5037" height="99.5038" filterUnits="userSpaceOnUse" color-interpolation-filters="sRGB">
<feFlood flood-opacity="0" result="BackgroundImageFix"/>
<feGaussianBlur in="BackgroundImageFix" stdDeviation="9.72"/>
<feComposite in2="SourceAlpha" operator="in" result="effect1_backgroundBlur_743_949"/>
<feBlend mode="normal" in="SourceGraphic" in2="effect1_backgroundBlur_743_949" result="shape"/>
</filter>
<filter id="filter2_bd_743_949" x="22.4298" y="25.0248" width="68.7334" height="65.7712" filterUnits="userSpaceOnUse" color-interpolation-filters="sRGB">
<feFlood flood-opacity="0" result="BackgroundImageFix"/>
<feGaussianBlur in="BackgroundImageFix" stdDeviation="6.075"/>
<feComposite in2="SourceAlpha" operator="in" result="effect1_backgroundBlur_743_949"/>
<feColorMatrix in="SourceAlpha" type="matrix" values="0 0 0 0 0 0 0 0 0 0 0 0 0 0 0 0 0 0 127 0" result="hardAlpha"/>
<feOffset dx="4.05" dy="4.05"/>
<feGaussianBlur stdDeviation="4.05"/>
<feColorMatrix type="matrix" values="0 0 0 0 0.15375 0 0 0 0 0.522433 0 0 0 0 0.9 0 0 0 0.4 0"/>
<feBlend mode="normal" in2="effect1_backgroundBlur_743_949" result="effect2_dropShadow_743_949"/>
<feBlend mode="normal" in="SourceGraphic" in2="effect2_dropShadow_743_949" result="shape"/>
</filter>
<linearGradient id="paint0_linear_743_949" x1="33.4999" y1="16.1798" x2="48.4253" y2="71.8818" gradientUnits="userSpaceOnUse">
<stop stop-color="#AF84E7"/>
<stop offset="1" stop-color="#9350E7"/>
</linearGradient>
<linearGradient id="paint1_linear_743_949" x1="35.0851" y1="32.2007" x2="72.7232" y2="78.8164" gradientUnits="userSpaceOnUse">
<stop stop-color="white" stop-opacity="0.25"/>
<stop offset="1" stop-color="white" stop-opacity="0.06"/>
</linearGradient>
<linearGradient id="paint2_linear_743_949" x1="75.863" y1="44.6637" x2="26.3761" y2="46.3924" gradientUnits="userSpaceOnUse">
<stop stop-color="white"/>
<stop offset="1" stop-color="white" stop-opacity="0.2"/>
</linearGradient>
<linearGradient id="paint3_linear_743_949" x1="39.3663" y1="51.0864" x2="77.0963" y2="51.3095" gradientUnits="userSpaceOnUse">
<stop stop-color="white"/>
<stop offset="1" stop-color="white" stop-opacity="0"/>
</linearGradient>
</defs>
</svg>
