<svg width="23" height="23" viewBox="0 0 23 23" fill="none" xmlns="http://www.w3.org/2000/svg">
<path d="M11.5 23C17.8513 23 23 17.8513 23 11.5C23 5.14873 17.8513 0 11.5 0C5.14873 0 0 5.14873 0 11.5C0 17.8513 5.14873 23 11.5 23Z" fill="black"/>
<path d="M6.64398 15.8816V8.88822H8.55333V15.8816H6.64398ZM7.60314 7.98674C7.31927 7.98674 7.07575 7.89112 6.87256 7.6999C6.67236 7.50564 6.57227 7.27344 6.57227 7.0033C6.57227 6.73619 6.67236 6.50703 6.87256 6.3158C7.07575 6.12154 7.31927 6.02441 7.60314 6.02441C7.887 6.02441 8.12903 6.12154 8.32923 6.3158C8.53241 6.50703 8.63401 6.73619 8.63401 7.0033C8.63401 7.27344 8.53241 7.50564 8.32923 7.6999C8.12903 7.89112 7.887 7.98674 7.60314 7.98674Z" fill="white"/>
<path d="M11.9922 11.8385V15.8816H10.0828V8.88822H11.9025V10.1221H11.9832C12.1356 9.71534 12.3911 9.3936 12.7496 9.15685C13.1082 8.91706 13.543 8.79716 14.0539 8.79716C14.532 8.79716 14.9488 8.9034 15.3044 9.11587C15.66 9.32834 15.9364 9.63187 16.1336 10.0265C16.3308 10.418 16.4294 10.8854 16.4294 11.4288V15.8816H14.5201V11.7748C14.523 11.3468 14.4155 11.0129 14.1973 10.7731C13.9792 10.5303 13.6789 10.4089 13.2965 10.4089C13.0395 10.4089 12.8124 10.4651 12.6152 10.5774C12.421 10.6897 12.2686 10.8536 12.158 11.0691C12.0504 11.2816 11.9952 11.538 11.9922 11.8385Z" fill="white"/>
</svg>
