<svg width="23" height="23" viewBox="0 0 23 23" fill="none" xmlns="http://www.w3.org/2000/svg">
<path d="M11.5 23C17.8513 23 23 17.8513 23 11.5C23 5.14873 17.8513 0 11.5 0C5.14873 0 0 5.14873 0 11.5C0 17.8513 5.14873 23 11.5 23Z" fill="white"/>
<path d="M11.5011 5.35125C13.5027 5.35125 13.74 5.35784 14.531 5.3952C15.2626 5.42815 15.6603 5.55119 15.924 5.65446C16.2733 5.79068 16.5238 5.95327 16.7853 6.21474C17.0467 6.4762 17.2093 6.72667 17.3455 7.07602C17.4488 7.33968 17.5696 7.73737 17.6048 8.46902C17.64 9.26 17.6487 9.49729 17.6487 11.4989C17.6487 13.5005 17.6422 13.7378 17.6048 14.5288C17.5718 15.2604 17.4488 15.6581 17.3455 15.9218C17.2093 16.2711 17.0467 16.5216 16.7853 16.7831C16.5238 17.0445 16.2733 17.2071 15.924 17.3433C15.6603 17.4466 15.2626 17.5675 14.531 17.6026C13.74 17.6378 13.5027 17.6466 11.5011 17.6466C9.49949 17.6466 9.26219 17.64 8.47122 17.6026C7.73956 17.5696 7.34188 17.4466 7.07822 17.3433C6.72887 17.2071 6.47839 17.0445 6.21693 16.7831C5.95547 16.5216 5.79288 16.2711 5.65666 15.9218C5.55339 15.6581 5.43255 15.2604 5.39739 14.5288C5.36224 13.7378 5.35345 13.5005 5.35345 11.4989C5.35345 9.49729 5.36004 9.26 5.39739 8.46902C5.43035 7.73737 5.55339 7.33968 5.65666 7.07602C5.79288 6.72667 5.95547 6.4762 6.21693 6.21474C6.47839 5.95327 6.72887 5.79068 7.07822 5.65446C7.34188 5.55119 7.73956 5.43035 8.47122 5.3952C9.26219 5.35784 9.49949 5.35125 11.5011 5.35125ZM11.5011 4C9.46433 4 9.20946 4.00879 8.4097 4.04614C7.61213 4.08349 7.06723 4.20873 6.58825 4.39549C6.09609 4.58444 5.67643 4.84151 5.26117 5.25897C4.84371 5.67643 4.58884 6.09389 4.39549 6.58825C4.21093 7.06504 4.08349 7.60993 4.04614 8.4097C4.00879 9.20946 4 9.46433 4 11.5011C4 13.5379 4.00879 13.7927 4.04614 14.5925C4.08349 15.3901 4.20873 15.935 4.39549 16.4139C4.58664 16.9039 4.84371 17.3236 5.26117 17.7388C5.67863 18.1563 6.09609 18.4112 6.59045 18.6045C7.06723 18.7891 7.61213 18.9165 8.41189 18.9539C9.21166 18.9912 9.46653 19 11.5033 19C13.5401 19 13.7949 18.9912 14.5947 18.9539C15.3923 18.9165 15.9372 18.7913 16.4161 18.6045C16.9061 18.4134 17.3258 18.1563 17.741 17.7388C18.1585 17.3214 18.4134 16.9039 18.6067 16.4095C18.7913 15.9328 18.9187 15.3879 18.9561 14.5881C18.9934 13.7883 19.0022 13.5335 19.0022 11.4967C19.0022 9.45994 18.9934 9.20507 18.9561 8.4053C18.9187 7.60773 18.7935 7.06284 18.6067 6.58386C18.4156 6.09389 18.1585 5.67423 17.741 5.25897C17.3236 4.84151 16.9061 4.58664 16.4117 4.39329C15.935 4.20873 15.3901 4.08129 14.5903 4.04394C13.7927 4.00879 13.5379 4 11.5011 4Z" fill="#8E60CB"/>
<path d="M11.4995 7.64746C9.37295 7.64746 7.64844 9.37198 7.64844 11.4985C7.64844 13.6251 9.37295 15.3496 11.4995 15.3496C13.626 15.3496 15.3505 13.6251 15.3505 11.4985C15.3505 9.37198 13.626 7.64746 11.4995 7.64746ZM11.4995 13.9985C10.1199 13.9985 8.99949 12.8803 8.99949 11.4985C8.99949 10.1167 10.1199 8.99852 11.4995 8.99852C12.8791 8.99852 13.9995 10.1167 13.9995 11.4985C13.9995 12.8803 12.8791 13.9985 11.4995 13.9985Z" fill="#8E60CB"/>
<path d="M15.5062 8.3954C16.0036 8.3954 16.4069 7.99214 16.4069 7.4947C16.4069 6.99725 16.0036 6.59399 15.5062 6.59399C15.0087 6.59399 14.6055 6.99725 14.6055 7.4947C14.6055 7.99214 15.0087 8.3954 15.5062 8.3954Z" fill="#8E60CB"/>
</svg>
