<svg width="32" height="24" viewBox="0 0 32 24" fill="none" xmlns="http://www.w3.org/2000/svg">
<path d="M13.3309 0L13.9455 1.0996C13.3782 3.42629 12.6533 5.91235 11.7709 8.55777C10.92 11.2032 9.97455 13.8486 8.93455 16.494C7.92606 19.1713 6.90182 21.6733 5.86182 24H0C0.661818 21.4502 1.30788 18.757 1.93818 15.9203C2.56848 13.1155 3.13576 10.3426 3.64 7.60159C4.17576 4.82868 4.60121 2.29482 4.91636 0H13.3309Z" fill="url(#paint0_linear_258_502)"/>
<path d="M31.3855 0L32 1.0996C31.4327 3.42629 30.7079 5.91235 29.8255 8.55777C28.9745 11.2032 28.0291 13.8486 26.9891 16.494C25.9806 19.1713 24.9564 21.6733 23.9164 24H18.0545C18.7164 21.4502 19.3624 18.757 19.9927 15.9203C20.623 13.1155 21.1903 10.3426 21.6945 7.60159C22.2303 4.82868 22.6558 2.29482 22.9709 0H31.3855Z" fill="url(#paint1_linear_258_502)"/>
<defs>
<linearGradient id="paint0_linear_258_502" x1="16" y1="0" x2="16" y2="24" gradientUnits="userSpaceOnUse">
<stop stop-color="#3F0099"/>
<stop offset="1" stop-color="#9263CD"/>
</linearGradient>
<linearGradient id="paint1_linear_258_502" x1="16" y1="0" x2="16" y2="24" gradientUnits="userSpaceOnUse">
<stop stop-color="#3F0099"/>
<stop offset="1" stop-color="#9263CD"/>
</linearGradient>
</defs>
</svg>
