<svg width="55" height="56" viewBox="0 0 55 56" fill="none" xmlns="http://www.w3.org/2000/svg">
<path d="M0 5.2445C0 2.34804 2.34804 0 5.2445 0H38.8093C41.7058 0 44.0538 2.34804 44.0538 5.2445V37.7604C44.0538 40.6569 41.7058 43.0049 38.8093 43.0049H5.24451C2.34805 43.0049 0 40.6569 0 37.7604V5.2445Z" fill="#9263CD"/>
<g filter="url(#filter0_b_266_577)">
<path d="M50.3474 8.3916C52.6645 8.3916 54.543 10.27 54.543 12.5872L54.543 35.2039C54.543 40.4661 51.7273 45.326 47.1622 47.9433L34.0784 55.4446C32.7859 56.1857 31.1973 56.1857 29.9048 55.4446L16.821 47.9433C12.2559 45.326 9.44023 40.4661 9.44023 35.2039L9.44023 12.5872C9.44023 10.27 11.3187 8.3916 13.6358 8.3916L50.3474 8.3916Z" fill="#65C8FF" fill-opacity="0.4"/>
</g>
<path fill-rule="evenodd" clip-rule="evenodd" d="M34.1637 20.3969C35.135 19.4256 36.4524 18.8799 37.8261 18.8799C40.6866 18.8799 43.0054 21.1988 43.0054 24.0593C43.0054 25.4329 42.4598 26.7503 41.4884 27.7216L37.9528 31.2573C37.4749 31.7352 36.7001 31.7352 36.2222 31.2573C35.7443 30.7794 35.7443 30.0046 36.2222 29.5267L39.7578 25.991C40.2702 25.4787 40.558 24.7838 40.558 24.0593C40.558 22.5504 39.3349 21.3273 37.8261 21.3273C37.1015 21.3273 36.4066 21.6151 35.8943 22.1275L32.3587 25.6631C31.8808 26.141 31.106 26.141 30.6281 25.6631C30.1502 25.1852 30.1502 24.4104 30.6281 23.9325L34.1637 20.3969ZM36.3194 25.5659C36.7973 26.0438 36.7973 26.8187 36.3194 27.2965L29.3903 34.2256C28.9125 34.7035 28.1376 34.7035 27.6597 34.2256C27.1819 33.7477 27.1819 32.9729 27.6597 32.495L34.5888 25.5659C35.0667 25.0881 35.8415 25.0881 36.3194 25.5659ZM27.7482 28.5429C28.2261 29.0208 28.2261 29.7957 27.7482 30.2735L24.2261 33.7957C23.7138 34.308 23.426 35.0029 23.426 35.7274C23.426 37.2362 24.6491 38.4594 26.1579 38.4594C26.8824 38.4594 27.5773 38.1715 28.0897 37.6592L31.6163 34.1326C32.0942 33.6547 32.869 33.6547 33.3469 34.1326C33.8248 34.6105 33.8248 35.3853 33.3469 35.8632L29.8203 39.3898C28.8489 40.3611 27.5315 40.9068 26.1579 40.9068C23.2974 40.9068 20.9785 38.5879 20.9785 35.7274C20.9785 34.3538 21.5242 33.0364 22.4955 32.0651L26.0176 28.5429C26.4955 28.0651 27.2703 28.0651 27.7482 28.5429Z" fill="white"/>
<defs>
<filter id="filter0_b_266_577" x="-0.560547" y="-1.6084" width="65.1035" height="67.6088" filterUnits="userSpaceOnUse" color-interpolation-filters="sRGB">
<feFlood flood-opacity="0" result="BackgroundImageFix"/>
<feGaussianBlur in="BackgroundImageFix" stdDeviation="5"/>
<feComposite in2="SourceAlpha" operator="in" result="effect1_backgroundBlur_266_577"/>
<feBlend mode="normal" in="SourceGraphic" in2="effect1_backgroundBlur_266_577" result="shape"/>
</filter>
</defs>
</svg>
