<svg width="84" height="84" viewBox="0 0 84 84" fill="none" xmlns="http://www.w3.org/2000/svg">
<path fill-rule="evenodd" clip-rule="evenodd" d="M57.4677 20.1476C56.404 18.8982 55.3402 18.3279 53.718 18.3279H17.803C16.952 18.3279 16.2605 17.676 16.1808 16.8042L15.6755 10.7202C15.5957 9.79677 14.9309 9.03899 14.0267 8.87332L7.68403 7.89826C6.59368 7.73258 5.55652 8.46863 5.37036 9.57949C5.18421 10.6659 5.92884 11.7252 6.99259 11.9153L11.0083 12.6215L13.4549 42.229C13.7474 45.8142 16.6727 48.5818 20.2097 48.5818H49.2236C52.601 48.5818 55.4732 46.0586 55.9519 42.6337L58.4783 24.8165C58.7176 23.1896 58.5315 21.397 57.4677 20.1476Z" fill="url(#paint0_linear_725_1927)"/>
<g filter="url(#filter0_f_725_1927)">
<rect x="17.989" y="25.5938" width="31.8937" height="19.1362" rx="3.54375" fill="#8237FF" fill-opacity="0.5"/>
</g>
<g filter="url(#filter1_b_725_1927)">
<mask id="path-3-outside-1_725_1927" maskUnits="userSpaceOnUse" x="20.4069" y="17.6252" width="60" height="60" fill="black">
<rect fill="white" x="20.4069" y="17.6252" width="60" height="60"/>
<path fill-rule="evenodd" clip-rule="evenodd" d="M26.8027 29.9917C25.0387 29.9917 23.882 30.6119 22.7253 31.9704C21.5685 33.329 21.3661 35.2783 21.6264 37.0474L24.3736 56.4218C24.8941 60.146 28.0173 62.8898 31.6899 62.8898H63.2395C67.0856 62.8898 70.2666 59.8802 70.5847 55.9817L73.2452 23.7865L77.6118 23.0186C78.7685 22.8119 79.5782 21.6601 79.3758 20.4787C79.1734 19.2708 78.0456 18.4704 76.8599 18.6505L69.963 19.7108C68.9797 19.891 68.2568 20.715 68.17 21.7191L67.6206 28.3348C67.5338 29.2828 66.782 29.9917 65.8566 29.9917H26.8027ZM63.7032 67.5582C66.1323 67.5582 68.0988 69.5665 68.0988 72.0474C68.0988 74.4987 66.1323 76.507 63.7032 76.507C61.303 76.507 59.3366 74.4987 59.3366 72.0474C59.3366 69.5665 61.303 67.5582 63.7032 67.5582ZM31.1706 67.5582C33.5997 67.5582 35.5662 69.5665 35.5662 72.0474C35.5662 74.4987 33.5997 76.507 31.1706 76.507C28.7704 76.507 26.804 74.4987 26.804 72.0474C26.804 69.5665 28.7704 67.5582 31.1706 67.5582Z"/>
</mask>
<path fill-rule="evenodd" clip-rule="evenodd" d="M26.8027 29.9917C25.0387 29.9917 23.882 30.6119 22.7253 31.9704C21.5685 33.329 21.3661 35.2783 21.6264 37.0474L24.3736 56.4218C24.8941 60.146 28.0173 62.8898 31.6899 62.8898H63.2395C67.0856 62.8898 70.2666 59.8802 70.5847 55.9817L73.2452 23.7865L77.6118 23.0186C78.7685 22.8119 79.5782 21.6601 79.3758 20.4787C79.1734 19.2708 78.0456 18.4704 76.8599 18.6505L69.963 19.7108C68.9797 19.891 68.2568 20.715 68.17 21.7191L67.6206 28.3348C67.5338 29.2828 66.782 29.9917 65.8566 29.9917H26.8027ZM63.7032 67.5582C66.1323 67.5582 68.0988 69.5665 68.0988 72.0474C68.0988 74.4987 66.1323 76.507 63.7032 76.507C61.303 76.507 59.3366 74.4987 59.3366 72.0474C59.3366 69.5665 61.303 67.5582 63.7032 67.5582ZM31.1706 67.5582C33.5997 67.5582 35.5662 69.5665 35.5662 72.0474C35.5662 74.4987 33.5997 76.507 31.1706 76.507C28.7704 76.507 26.804 74.4987 26.804 72.0474C26.804 69.5665 28.7704 67.5582 31.1706 67.5582Z" fill="#65C8FF" fill-opacity="0.4"/>
<path d="M22.7253 31.9704L22.1856 31.511V31.511L22.7253 31.9704ZM21.6264 37.0474L22.3276 36.9442L22.3281 36.9479L21.6264 37.0474ZM24.3736 56.4218L25.0753 56.3223L25.0755 56.3237L24.3736 56.4218ZM70.5847 55.9817L69.8783 55.9241L69.8784 55.9233L70.5847 55.9817ZM73.2452 23.7865L72.5388 23.7282C72.5654 23.4071 72.8051 23.1443 73.1224 23.0885L73.2452 23.7865ZM77.6118 23.0186L77.7365 23.7163L77.7345 23.7167L77.6118 23.0186ZM79.3758 20.4787L78.6772 20.5984L78.6768 20.5958L79.3758 20.4787ZM76.8599 18.6505L76.7522 17.95L76.7534 17.9498L76.8599 18.6505ZM69.963 19.7108L69.8352 19.0137C69.8419 19.0124 69.8486 19.0113 69.8553 19.0103L69.963 19.7108ZM68.17 21.7191L67.4637 21.6605L67.4639 21.6581L68.17 21.7191ZM67.6206 28.3348L68.3269 28.3934L68.3264 28.3994L67.6206 28.3348ZM22.1856 31.511C22.8045 30.7841 23.4553 30.217 24.2211 29.8368C24.9912 29.4544 25.8333 29.2829 26.8027 29.2829V30.7004C26.0081 30.7004 25.3898 30.8391 24.8515 31.1064C24.3087 31.3759 23.8028 31.7982 23.2649 32.4299L22.1856 31.511ZM20.9252 37.1505C20.6513 35.2888 20.8386 33.0931 22.1856 31.511L23.2649 32.4299C22.2985 33.565 22.0809 35.2677 22.3276 36.9442L20.9252 37.1505ZM23.6719 56.5213L20.9246 37.1469L22.3281 36.9479L25.0753 56.3223L23.6719 56.5213ZM31.6899 63.5985C27.655 63.5985 24.2399 60.5855 23.6717 56.5199L25.0755 56.3237C25.5483 59.7066 28.3796 62.181 31.6899 62.181V63.5985ZM63.2395 63.5985H31.6899V62.181H63.2395V63.5985ZM71.2911 56.0394C70.9441 60.2916 67.4687 63.5985 63.2395 63.5985V62.181C66.7025 62.181 69.5891 59.4688 69.8783 55.9241L71.2911 56.0394ZM73.9515 23.8449L71.291 56.0401L69.8784 55.9233L72.5388 23.7282L73.9515 23.8449ZM77.7345 23.7167L73.3679 24.4846L73.1224 23.0885L77.489 22.3206L77.7345 23.7167ZM80.0744 20.359C80.3418 21.9199 79.2809 23.4403 77.7365 23.7163L77.4871 22.3209C78.2561 22.1835 78.8146 21.4003 78.6772 20.5984L80.0744 20.359ZM76.7534 17.9498C78.3192 17.7119 79.8079 18.7691 80.0748 20.3616L78.6768 20.5958C78.5388 19.7724 77.7719 19.2288 76.9664 19.3512L76.7534 17.9498ZM69.8553 19.0103L76.7522 17.95L76.9676 19.3511L70.0707 20.4113L69.8553 19.0103ZM67.4639 21.6581C67.577 20.3497 68.5245 19.2538 69.8352 19.0137L70.0907 20.408C69.435 20.5281 68.9366 21.0803 68.8762 21.7801L67.4639 21.6581ZM66.9143 28.2761L67.4637 21.6605L68.8764 21.7778L68.3269 28.3934L66.9143 28.2761ZM65.8566 29.2829C66.3967 29.2829 66.8597 28.8725 66.9148 28.2702L68.3264 28.3994C68.208 29.6932 67.1672 30.7004 65.8566 30.7004V29.2829ZM26.8027 29.2829H65.8566V30.7004H26.8027V29.2829ZM67.39 72.0474C67.39 69.9438 65.7269 68.2669 63.7032 68.2669V66.8494C66.5378 66.8494 68.8075 69.1892 68.8075 72.0474H67.39ZM63.7032 75.7983C65.7299 75.7983 67.39 74.1184 67.39 72.0474H68.8075C68.8075 74.8791 66.5348 77.2158 63.7032 77.2158V75.7983ZM60.0453 72.0474C60.0453 74.1214 61.7085 75.7983 63.7032 75.7983V77.2158C60.8976 77.2158 58.6278 74.876 58.6278 72.0474H60.0453ZM63.7032 68.2669C61.7115 68.2669 60.0453 69.9407 60.0453 72.0474H58.6278C58.6278 69.1923 60.8946 66.8494 63.7032 66.8494V68.2669ZM34.8574 72.0474C34.8574 69.9438 33.1943 68.2669 31.1706 68.2669V66.8494C34.0052 66.8494 36.2749 69.1892 36.2749 72.0474H34.8574ZM31.1706 75.7983C33.1973 75.7983 34.8574 74.1184 34.8574 72.0474H36.2749C36.2749 74.8791 34.0022 77.2158 31.1706 77.2158V75.7983ZM27.5127 72.0474C27.5127 74.1214 29.1758 75.7983 31.1706 75.7983V77.2158C28.365 77.2158 26.0952 74.876 26.0952 72.0474H27.5127ZM31.1706 68.2669C29.1789 68.2669 27.5127 69.9407 27.5127 72.0474H26.0952C26.0952 69.1923 28.362 66.8494 31.1706 66.8494V68.2669Z" fill="url(#paint1_linear_725_1927)" mask="url(#path-3-outside-1_725_1927)"/>
</g>
<g filter="url(#filter2_bd_725_1927)">
<mask id="path-5-inside-2_725_1927" fill="white">
<path fill-rule="evenodd" clip-rule="evenodd" d="M36.3166 45.3452H44.3269C45.5414 45.3452 46.4957 44.341 46.4957 43.1301C46.4957 41.8897 45.5414 40.915 44.3269 40.915H36.3166C35.102 40.915 34.1477 41.8897 34.1477 43.1301C34.1477 44.341 35.102 45.3452 36.3166 45.3452Z"/>
</mask>
<path fill-rule="evenodd" clip-rule="evenodd" d="M36.3166 45.3452H44.3269C45.5414 45.3452 46.4957 44.341 46.4957 43.1301C46.4957 41.8897 45.5414 40.915 44.3269 40.915H36.3166C35.102 40.915 34.1477 41.8897 34.1477 43.1301C34.1477 44.341 35.102 45.3452 36.3166 45.3452Z" fill="url(#paint2_linear_725_1927)"/>
<path d="M36.3166 45.2034H44.3269V45.4869H36.3166V45.2034ZM44.3269 45.2034C45.4591 45.2034 46.354 44.2668 46.354 43.1301H46.6375C46.6375 44.4152 45.6237 45.4869 44.3269 45.4869V45.2034ZM46.354 43.1301C46.354 41.9651 45.4603 41.0568 44.3269 41.0568V40.7733C45.6225 40.7733 46.6375 41.8142 46.6375 43.1301H46.354ZM44.3269 41.0568H36.3166V40.7733H44.3269V41.0568ZM36.3166 41.0568C35.1831 41.0568 34.2895 41.9651 34.2895 43.1301H34.006C34.006 41.8142 35.0209 40.7733 36.3166 40.7733V41.0568ZM34.2895 43.1301C34.2895 44.2668 35.1843 45.2034 36.3166 45.2034V45.4869C35.0197 45.4869 34.006 44.4152 34.006 43.1301H34.2895Z" fill="url(#paint3_linear_725_1927)" fill-opacity="0.5" mask="url(#path-5-inside-2_725_1927)"/>
</g>
<defs>
<filter id="filter0_f_725_1927" x="8.06651" y="15.6713" width="51.7388" height="38.9812" filterUnits="userSpaceOnUse" color-interpolation-filters="sRGB">
<feFlood flood-opacity="0" result="BackgroundImageFix"/>
<feBlend mode="normal" in="SourceGraphic" in2="BackgroundImageFix" result="shape"/>
<feGaussianBlur stdDeviation="4.96125" result="effect1_foregroundBlur_725_1927"/>
</filter>
<filter id="filter1_b_725_1927" x="3.80714" y="0.906506" width="93.3185" height="93.3193" filterUnits="userSpaceOnUse" color-interpolation-filters="sRGB">
<feFlood flood-opacity="0" result="BackgroundImageFix"/>
<feGaussianBlur in="BackgroundImageFix" stdDeviation="8.505"/>
<feComposite in2="SourceAlpha" operator="in" result="effect1_backgroundBlur_725_1927"/>
<feBlend mode="normal" in="SourceGraphic" in2="effect1_backgroundBlur_725_1927" result="shape"/>
</filter>
<filter id="filter2_bd_725_1927" x="23.5165" y="30.2838" width="33.6105" height="25.6927" filterUnits="userSpaceOnUse" color-interpolation-filters="sRGB">
<feFlood flood-opacity="0" result="BackgroundImageFix"/>
<feGaussianBlur in="BackgroundImageFix" stdDeviation="5.31562"/>
<feComposite in2="SourceAlpha" operator="in" result="effect1_backgroundBlur_725_1927"/>
<feColorMatrix in="SourceAlpha" type="matrix" values="0 0 0 0 0 0 0 0 0 0 0 0 0 0 0 0 0 0 127 0" result="hardAlpha"/>
<feOffset dx="3.54375" dy="3.54375"/>
<feGaussianBlur stdDeviation="3.54375"/>
<feColorMatrix type="matrix" values="0 0 0 0 0.333333 0 0 0 0 0.614035 0 0 0 0 1 0 0 0 1 0"/>
<feBlend mode="normal" in2="effect1_backgroundBlur_725_1927" result="effect2_dropShadow_725_1927"/>
<feBlend mode="normal" in="SourceGraphic" in2="effect2_dropShadow_725_1927" result="shape"/>
</filter>
<linearGradient id="paint0_linear_725_1927" x1="31.9564" y1="7.875" x2="31.9564" y2="48.5818" gradientUnits="userSpaceOnUse">
<stop stop-color="#B183FF"/>
<stop offset="1" stop-color="#9F66FF"/>
</linearGradient>
<linearGradient id="paint1_linear_725_1927" x1="70.1931" y1="25.3685" x2="33.2707" y2="71.0975" gradientUnits="userSpaceOnUse">
<stop stop-color="white" stop-opacity="0.25"/>
<stop offset="1" stop-color="white" stop-opacity="0"/>
<stop offset="1" stop-color="white" stop-opacity="0"/>
</linearGradient>
<linearGradient id="paint2_linear_725_1927" x1="35.0232" y1="41.715" x2="48.6795" y2="42.9561" gradientUnits="userSpaceOnUse">
<stop stop-color="white"/>
<stop offset="1" stop-color="white" stop-opacity="0.2"/>
</linearGradient>
<linearGradient id="paint3_linear_725_1927" x1="45.1656" y1="42.4011" x2="34.6826" y2="42.5624" gradientUnits="userSpaceOnUse">
<stop stop-color="white"/>
<stop offset="1" stop-color="white" stop-opacity="0"/>
</linearGradient>
</defs>
</svg>
