<svg width="80" height="56" viewBox="0 0 80 56" fill="none" xmlns="http://www.w3.org/2000/svg">
<rect x="42.2891" width="45.7935" height="42.588" rx="5.44396" transform="rotate(83.2147 42.2891 0)" fill="#9263CD"/>
<path d="M30.193 15.9154C30.6369 19.6461 27.9724 23.0302 24.2418 23.4741C20.5112 23.918 17.127 21.2535 16.6832 17.5229C16.2393 13.7922 18.9037 10.4081 22.6344 9.96425C26.365 9.52037 29.7491 12.1848 30.193 15.9154Z" fill="white"/>
<path d="M12.514 34.5344C13.4874 30.2662 17.0397 27.0712 21.3868 26.554L27.7398 25.7981C32.0869 25.2809 36.2896 27.5531 38.2374 31.4737C38.9514 32.9109 38.0264 34.6216 36.4329 34.8112L15.0512 37.3553C13.4577 37.5449 12.1572 36.0989 12.514 34.5344Z" fill="white"/>
<g filter="url(#filter0_b_266_568)">
<path d="M68.44 12.8125C71.0436 12.8125 73.1543 14.9232 73.1543 17.5268L73.1543 38.3201C73.1543 42.3729 71.072 46.1413 67.6409 48.2982L58.5946 53.9848C55.5272 55.913 51.6263 55.913 48.5589 53.9848L39.5125 48.2982C36.0814 46.1413 33.9992 42.3729 33.9992 38.3201L33.9992 17.5268C33.9992 14.9232 36.1098 12.8125 38.7134 12.8125L68.44 12.8125Z" fill="#86D3FF" fill-opacity="0.3"/>
</g>
<path d="M50.8238 33.627L47.2412 30.1343C46.4415 29.3547 45.1663 29.3204 44.3249 30.0559C43.4593 30.8125 43.3614 32.1116 44.104 32.9862L50.4343 40.4422C51.3819 41.5583 53.1335 41.5193 54.0327 40.365C57.9218 35.372 64.2268 27.7628 66.6366 24.8669C67.1973 24.1931 67.1641 23.2119 66.5638 22.5731C65.9078 21.8751 64.8113 21.8407 64.1152 22.4988C61.7087 24.7738 56.3507 29.8494 52.442 33.6286C51.9926 34.0631 51.2714 34.0633 50.8238 33.627Z" fill="#9263CD"/>
<defs>
<filter id="filter0_b_266_568" x="27.6487" y="6.46121" width="51.8569" height="55.321" filterUnits="userSpaceOnUse" color-interpolation-filters="sRGB">
<feFlood flood-opacity="0" result="BackgroundImageFix"/>
<feGaussianBlur in="BackgroundImageFix" stdDeviation="3.17564"/>
<feComposite in2="SourceAlpha" operator="in" result="effect1_backgroundBlur_266_568"/>
<feBlend mode="normal" in="SourceGraphic" in2="effect1_backgroundBlur_266_568" result="shape"/>
</filter>
</defs>
</svg>
