<svg width="60" height="56" viewBox="0 0 60 56" fill="none" xmlns="http://www.w3.org/2000/svg">
<path fill-rule="evenodd" clip-rule="evenodd" d="M25.8154 55.5438C39.7245 55.5438 51 44.2683 51 30.3593C51 16.4502 39.7245 5.17468 25.8154 5.17468C11.9064 5.17468 0.630859 16.4502 0.630859 30.3593C0.630859 44.2683 11.9064 55.5438 25.8154 55.5438ZM25.8153 41.5438C31.9924 41.5438 36.9998 36.5363 36.9998 30.3593C36.9998 24.1823 31.9924 19.1748 25.8153 19.1748C19.6383 19.1748 14.6309 24.1823 14.6309 30.3593C14.6309 36.5363 19.6383 41.5438 25.8153 41.5438Z" fill="#9263CD"/>
<g filter="url(#filter0_b_536_14)">
<path d="M25.973 3.47566C26.0719 1.45416 27.7965 -0.124691 29.7955 0.191606C34.9616 1.00902 39.8861 3.01352 44.1729 6.06765C48.4596 9.12177 51.9625 13.1215 54.4224 17.7373C55.3743 19.5234 54.4453 21.6691 52.567 22.4228L29.7998 31.5579C27.3206 32.5527 24.6444 30.646 24.7749 27.9779L25.973 3.47566Z" fill="#65C8FF" fill-opacity="0.5"/>
</g>
<path d="M37.4522 12.3296C37.4522 13.6162 36.4092 14.6592 35.1226 14.6592C33.836 14.6592 32.793 13.6162 32.793 12.3296C32.793 11.043 33.836 10 35.1226 10C36.4092 10 37.4522 11.043 37.4522 12.3296Z" fill="#EEF3F6"/>
<path d="M43.3447 18.2221C43.3447 19.5088 42.3017 20.5518 41.0151 20.5518C39.7285 20.5518 38.6855 19.5088 38.6855 18.2221C38.6855 16.9355 39.7285 15.8925 41.0151 15.8925C42.3017 15.8925 43.3447 16.9355 43.3447 18.2221Z" fill="#EEF3F6"/>
<path d="M42.6443 11.7663C42.9387 11.4719 42.9387 10.9947 42.6443 10.7004C42.35 10.406 41.8728 10.406 41.5785 10.7004L33.3563 18.9225C33.062 19.2169 33.062 19.6941 33.3563 19.9884C33.6506 20.2828 34.1279 20.2828 34.4222 19.9884L42.6443 11.7663Z" fill="#EEF3F6"/>
<defs>
<filter id="filter0_b_536_14" x="14.8098" y="-9.80862" width="49.9507" height="51.594" filterUnits="userSpaceOnUse" color-interpolation-filters="sRGB">
<feFlood flood-opacity="0" result="BackgroundImageFix"/>
<feGaussianBlur in="BackgroundImageFix" stdDeviation="4.97987"/>
<feComposite in2="SourceAlpha" operator="in" result="effect1_backgroundBlur_536_14"/>
<feBlend mode="normal" in="SourceGraphic" in2="effect1_backgroundBlur_536_14" result="shape"/>
</filter>
</defs>
</svg>
