<svg width="15" height="29" viewBox="0 0 15 29" fill="none" xmlns="http://www.w3.org/2000/svg">
<path fill-rule="evenodd" clip-rule="evenodd" d="M5.08325 17.7992C5.18252 17.926 5.33365 18 5.49347 18H13.3416C13.5586 18 13.7531 17.8644 13.8305 17.6592C13.8404 17.6329 13.9668 17.2763 14.0145 17.1333C14.1505 16.7257 14.2862 16.2811 14.4132 15.8135C14.6283 15.0204 14.7954 14.2429 14.8956 13.5088C15.0921 12.0707 15.0228 10.9028 14.5885 10.0753C14.0865 9.11871 13.0576 8.45278 11.6679 7.99649C11.0087 7.78003 10.3077 7.62495 9.60751 7.52001C9.36281 7.48335 9.15595 7.45949 9.15595 7.45949V1.85447C9.15595 0.830436 8.33611 0 7.32446 0H7.06351C6.05208 0 5.23202 0.830564 5.23202 1.85411L5.23139 11.0745L3.79373 9.91075C2.64594 8.98163 1.05704 9.25459 0.278202 10.5155L0.0795413 10.8371C-0.0377194 11.0269 -0.0243175 11.2708 0.113045 11.4463L5.08325 17.7992ZM1.16524 11.0766C1.61219 10.353 2.48054 10.2039 3.13981 10.7375L5.42807 12.5898C5.77066 12.8672 6.27819 12.6203 6.27819 12.1765V1.85423C6.27819 1.41529 6.62996 1.05896 7.06328 1.05896H7.32423C7.75777 1.05896 8.10932 1.41504 8.10932 1.85462V7.94114C8.10932 8.22125 8.32499 8.45291 8.60131 8.46959C8.6399 8.47198 8.71758 8.478 8.82864 8.48905C9.01675 8.50764 9.22708 8.53337 9.45392 8.56728C10.1008 8.6642 10.7468 8.80709 11.3447 9.00345C12.5006 9.38302 13.3178 9.91199 13.6641 10.5718C13.9701 11.1548 14.0278 12.1272 13.859 13.3637C13.7655 14.0476 13.6078 14.7813 13.4038 15.5332C13.2827 15.98 13.1527 16.4053 13.0229 16.7944C12.9776 16.9302 12.9621 16.941 12.9621 16.941H5.74835L1.16524 11.0766Z" fill="#753CBD"/>
<path d="M6 25L9 28L12 25" stroke="#753CBD"/>
</svg>
