<svg width="60" height="114" viewBox="0 0 60 114" fill="none" xmlns="http://www.w3.org/2000/svg">
<circle cx="2.05574" cy="2.05574" r="2.05574" fill="#9263CD"/>
<circle cx="2.05574" cy="64.8487" r="2.05574" fill="#9263CD"/>
<circle cx="9.90535" cy="72.6983" r="2.05574" fill="#9263CD"/>
<circle cx="25.6026" cy="72.6983" r="2.05574" fill="#9263CD"/>
<circle cx="41.3018" cy="72.6983" r="2.05574" fill="#9263CD"/>
<circle cx="17.755" cy="80.5479" r="2.05574" fill="#9263CD"/>
<circle cx="33.4522" cy="80.5479" r="2.05574" fill="#9263CD"/>
<circle cx="2.05574" cy="33.4525" r="2.05574" fill="#9263CD"/>
<circle cx="9.90535" cy="41.3018" r="2.05574" fill="#9263CD"/>
<circle cx="25.6026" cy="41.3018" r="2.05574" fill="#9263CD"/>
<circle cx="41.3018" cy="41.3016" r="2.05574" fill="#9263CD"/>
<circle cx="17.755" cy="49.1505" r="2.05574" fill="#9263CD"/>
<circle cx="33.4522" cy="49.1505" r="2.05574" fill="#9263CD"/>
<circle cx="49.1495" cy="49.1505" r="2.05574" fill="#9263CD"/>
<circle cx="9.90535" cy="9.90535" r="2.05574" fill="#9263CD"/>
<circle cx="17.755" cy="17.754" r="2.05574" fill="#9263CD"/>
<circle cx="2.05574" cy="96.2462" r="2.05574" fill="#9263CD"/>
<circle cx="9.90535" cy="104.095" r="2.05574" fill="#9263CD"/>
<circle cx="2.05574" cy="17.754" r="2.05574" fill="#9263CD"/>
<circle cx="9.90535" cy="25.6036" r="2.05574" fill="#9263CD"/>
<circle cx="25.6026" cy="25.6036" r="2.05574" fill="#9263CD"/>
<circle cx="17.755" cy="33.4522" r="2.05574" fill="#9263CD"/>
<circle cx="33.4522" cy="33.4525" r="2.05574" fill="#9263CD"/>
<circle cx="2.05574" cy="80.5479" r="2.05574" fill="#9263CD"/>
<circle cx="9.90535" cy="88.3966" r="2.05574" fill="#9263CD"/>
<circle cx="25.6026" cy="88.3966" r="2.05574" fill="#9263CD"/>
<circle cx="17.755" cy="96.2462" r="2.05574" fill="#9263CD"/>
<circle cx="2.05574" cy="49.1505" r="2.05574" fill="#9263CD"/>
<circle cx="9.90535" cy="57.0001" r="2.05574" fill="#9263CD"/>
<circle cx="25.6026" cy="57.0001" r="2.05574" fill="#9263CD"/>
<circle cx="41.3018" cy="57.0001" r="2.05574" fill="#9263CD"/>
<circle cx="56.9991" cy="57.0001" r="2.05574" fill="#9263CD"/>
<circle cx="17.755" cy="64.8487" r="2.05574" fill="#9263CD"/>
<circle cx="33.4522" cy="64.8487" r="2.05574" fill="#9263CD"/>
<circle cx="49.1495" cy="64.8487" r="2.05574" fill="#9263CD"/>
<circle cx="2.05574" cy="111.944" r="2.05574" fill="#9263CD"/>
</svg>
