<svg width="95" height="184" viewBox="0 0 95 184" fill="none" xmlns="http://www.w3.org/2000/svg">
<circle cx="3.30509" cy="3.30509" r="3.30509" fill="#9263CD"/>
<circle cx="3.30509" cy="104.26" r="3.30509" fill="#9263CD"/>
<circle cx="15.9262" cy="116.879" r="3.30509" fill="#9263CD"/>
<circle cx="41.1645" cy="116.879" r="3.30509" fill="#9263CD"/>
<circle cx="66.4027" cy="116.879" r="3.30509" fill="#9263CD"/>
<circle cx="28.5473" cy="129.5" r="3.30509" fill="#9263CD"/>
<circle cx="53.7817" cy="129.5" r="3.30509" fill="#9263CD"/>
<circle cx="3.30509" cy="53.7836" r="3.30509" fill="#9263CD"/>
<circle cx="15.9262" cy="66.4026" r="3.30509" fill="#9263CD"/>
<circle cx="41.1606" cy="66.4026" r="3.30509" fill="#9263CD"/>
<circle cx="66.4027" cy="66.4027" r="3.30509" fill="#9263CD"/>
<circle cx="28.5434" cy="79.0219" r="3.30509" fill="#9263CD"/>
<circle cx="53.7817" cy="79.0219" r="3.30509" fill="#9263CD"/>
<circle cx="79.0238" cy="79.0219" r="3.30509" fill="#9263CD"/>
<circle cx="15.9262" cy="15.9262" r="3.30509" fill="#9263CD"/>
<circle cx="28.5473" cy="28.5434" r="3.30509" fill="#9263CD"/>
<circle cx="3.30509" cy="154.739" r="3.30509" fill="#9263CD"/>
<circle cx="15.9262" cy="167.358" r="3.30509" fill="#9263CD"/>
<circle cx="3.30509" cy="28.5434" r="3.30509" fill="#9263CD"/>
<circle cx="15.9262" cy="41.1645" r="3.30509" fill="#9263CD"/>
<circle cx="41.1606" cy="41.1645" r="3.30509" fill="#9263CD"/>
<circle cx="28.5434" cy="53.7817" r="3.30509" fill="#9263CD"/>
<circle cx="53.7817" cy="53.7836" r="3.30509" fill="#9263CD"/>
<circle cx="3.30509" cy="129.5" r="3.30509" fill="#9263CD"/>
<circle cx="15.9262" cy="142.12" r="3.30509" fill="#9263CD"/>
<circle cx="41.1645" cy="142.12" r="3.30509" fill="#9263CD"/>
<circle cx="28.5434" cy="154.739" r="3.30509" fill="#9263CD"/>
<circle cx="3.30509" cy="79.0219" r="3.30509" fill="#9263CD"/>
<circle cx="15.9262" cy="91.641" r="3.30509" fill="#9263CD"/>
<circle cx="41.1645" cy="91.641" r="3.30509" fill="#9263CD"/>
<circle cx="66.4027" cy="91.641" r="3.30509" fill="#9263CD"/>
<circle cx="91.641" cy="91.641" r="3.30509" fill="#9263CD"/>
<circle cx="28.5473" cy="104.26" r="3.30509" fill="#9263CD"/>
<circle cx="53.7817" cy="104.26" r="3.30509" fill="#9263CD"/>
<circle cx="79.0238" cy="104.26" r="3.30509" fill="#9263CD"/>
<circle cx="3.30509" cy="179.977" r="3.30509" fill="#9263CD"/>
</svg>
