<svg width="95" height="184" viewBox="0 0 95 184" fill="none" xmlns="http://www.w3.org/2000/svg">
<circle cx="3.30509" cy="3.30509" r="3.30509" fill="#9263CD"/>
<circle cx="3.30509" cy="104.26" r="3.30509" fill="#9263CD"/>
<circle cx="15.9252" cy="116.88" r="3.30509" fill="#9263CD"/>
<circle cx="41.1625" cy="116.88" r="3.30509" fill="#9263CD"/>
<circle cx="66.4027" cy="116.88" r="3.30509" fill="#9263CD"/>
<circle cx="28.5453" cy="129.5" r="3.30509" fill="#9263CD"/>
<circle cx="53.7826" cy="129.5" r="3.30509" fill="#9263CD"/>
<circle cx="3.30509" cy="53.7829" r="3.30509" fill="#9263CD"/>
<circle cx="15.9252" cy="66.4027" r="3.30509" fill="#9263CD"/>
<circle cx="41.1625" cy="66.4027" r="3.30509" fill="#9263CD"/>
<circle cx="66.4027" cy="66.4023" r="3.30509" fill="#9263CD"/>
<circle cx="28.5453" cy="79.0212" r="3.30509" fill="#9263CD"/>
<circle cx="53.7826" cy="79.0212" r="3.30509" fill="#9263CD"/>
<circle cx="79.0229" cy="79.0212" r="3.30509" fill="#9263CD"/>
<circle cx="15.9252" cy="15.9252" r="3.30509" fill="#9263CD"/>
<circle cx="28.5453" cy="28.5439" r="3.30509" fill="#9263CD"/>
<circle cx="3.30509" cy="154.739" r="3.30509" fill="#9263CD"/>
<circle cx="15.9252" cy="167.358" r="3.30509" fill="#9263CD"/>
<circle cx="3.30509" cy="28.5441" r="3.30509" fill="#9263CD"/>
<circle cx="15.9252" cy="41.164" r="3.30509" fill="#9263CD"/>
<circle cx="41.1625" cy="41.164" r="3.30509" fill="#9263CD"/>
<circle cx="28.5453" cy="53.7826" r="3.30509" fill="#9263CD"/>
<circle cx="53.7826" cy="53.7829" r="3.30509" fill="#9263CD"/>
<circle cx="3.30509" cy="129.5" r="3.30509" fill="#9263CD"/>
<circle cx="15.9252" cy="142.119" r="3.30509" fill="#9263CD"/>
<circle cx="41.1625" cy="142.119" r="3.30509" fill="#9263CD"/>
<circle cx="28.5453" cy="154.739" r="3.30509" fill="#9263CD"/>
<circle cx="3.30509" cy="79.0212" r="3.30509" fill="#9263CD"/>
<circle cx="15.9252" cy="91.6413" r="3.30509" fill="#9263CD"/>
<circle cx="41.1625" cy="91.6413" r="3.30509" fill="#9263CD"/>
<circle cx="66.4027" cy="91.6413" r="3.30509" fill="#9263CD"/>
<circle cx="91.6401" cy="91.6413" r="3.30509" fill="#9263CD"/>
<circle cx="28.5453" cy="104.26" r="3.30509" fill="#9263CD"/>
<circle cx="53.7826" cy="104.26" r="3.30509" fill="#9263CD"/>
<circle cx="79.0229" cy="104.26" r="3.30509" fill="#9263CD"/>
<circle cx="3.30509" cy="179.977" r="3.30509" fill="#9263CD"/>
</svg>
