<svg width="96" height="96" viewBox="0 0 96 96" fill="none" xmlns="http://www.w3.org/2000/svg">
<path d="M75.3079 42.904C75.3079 60.8007 60.8007 75.3079 42.904 75.3079C25.0073 75.3079 10.5 60.8007 10.5 42.904C10.5 25.0105 25.0073 10.5 42.904 10.5C60.8007 10.5 75.3079 25.0105 75.3079 42.904Z" fill="url(#paint0_linear_743_1049)"/>
<g opacity="0.5" filter="url(#filter0_f_743_1049)">
<path d="M63.6692 42.8737C63.6692 54.2692 54.4319 63.5064 43.0364 63.5064C31.641 63.5064 22.4037 54.2692 22.4037 42.8737C22.4037 31.4803 31.641 22.241 43.0364 22.241C54.4319 22.241 63.6692 31.4803 63.6692 42.8737Z" fill="#8237FF"/>
</g>
<g filter="url(#filter1_b_743_1049)">
<path d="M88.0052 55.6012C88.0052 73.4979 73.4979 88.0052 55.6012 88.0052C37.7045 88.0052 23.1973 73.4979 23.1973 55.6012C23.1973 37.7078 37.7045 23.1973 55.6012 23.1973C73.4979 23.1973 88.0052 37.7078 88.0052 55.6012Z" fill="#3EA0FE" fill-opacity="0.35"/>
<path d="M55.6012 88.4102C73.7216 88.4102 88.4102 73.7216 88.4102 55.6012C88.4102 37.4841 73.7216 22.7923 55.6012 22.7923C37.4808 22.7923 22.7923 37.4841 22.7923 55.6012C22.7923 73.7216 37.4808 88.4102 55.6012 88.4102Z" stroke="url(#paint1_linear_743_1049)" stroke-width="0.81" stroke-linecap="round" stroke-linejoin="round"/>
</g>
<g filter="url(#filter2_bd_743_1049)">
<path d="M68.5632 55.6172C68.5632 56.4362 68.3054 57.2583 67.7899 57.9166C67.6932 58.0458 67.2421 58.5781 66.8877 58.9246L66.6944 59.1136C63.9879 61.9831 57.254 66.2983 53.8387 67.6811C53.8387 67.7126 51.8088 68.5347 50.8422 68.5631H50.7133C49.2312 68.5631 47.8458 67.7473 47.1369 66.4243C46.7503 65.6967 46.3959 63.5863 46.3637 63.558C46.0737 61.6649 45.8804 58.7671 45.8804 55.5857C45.8804 52.2501 46.0737 49.2231 46.4281 47.3647C46.4281 47.3332 46.7825 45.6322 47.0081 45.0653C47.3625 44.2495 48.0069 43.5533 48.8124 43.1124C49.4568 42.8005 50.1334 42.6399 50.8422 42.6399C51.5833 42.6745 52.9687 43.1439 53.5165 43.3644C57.1251 44.7503 64.0202 49.2861 66.6622 52.0579C67.1133 52.4989 67.5966 53.0375 67.7254 53.1604C68.2732 53.8533 68.5632 54.7038 68.5632 55.6172Z" fill="url(#paint2_linear_743_1049)"/>
<path d="M67.6649 57.8188L67.6649 57.8187L67.6628 57.8215C67.5712 57.9439 67.1255 58.4701 66.7768 58.8111L66.5835 59.0001L66.5834 59L66.5789 59.0047C65.2387 60.4257 62.891 62.2137 60.4451 63.8223C58 65.4303 55.4727 66.8483 53.7791 67.534L53.68 67.5741V67.5841C53.6253 67.6084 53.5461 67.6415 53.4476 67.6808C53.2447 67.7618 52.9634 67.8674 52.652 67.973C52.0231 68.1862 51.2964 68.3904 50.8399 68.4044H50.7133C49.2892 68.4044 47.9578 67.6202 47.2769 66.3494C47.0954 66.0077 46.9142 65.3205 46.7722 64.6939C46.7021 64.3846 46.643 64.0968 46.5992 63.8836L46.5992 63.8835L46.599 63.8827C46.5773 63.7769 46.5591 63.6884 46.5453 63.6255C46.5385 63.5942 46.5323 63.5673 46.527 63.547C46.5245 63.5372 46.5215 63.5262 46.5181 63.5161C46.5179 63.5157 46.5178 63.5152 46.5176 63.5147C46.2309 61.6319 46.0391 58.7514 46.0391 55.5857C46.0391 52.2531 46.2324 49.2379 46.584 47.3944L46.5868 47.3797V47.3765L46.5882 47.3687C46.5907 47.3555 46.5944 47.3362 46.5994 47.3112C46.6094 47.2614 46.624 47.1908 46.6422 47.1048C46.6788 46.933 46.7299 46.7007 46.7881 46.4519C46.9051 45.9506 47.0472 45.3975 47.1546 45.1262C47.4942 44.3462 48.1117 43.6779 48.8851 43.2535C49.5066 42.9534 50.1572 42.7992 50.8385 42.7986C51.1884 42.8156 51.7023 42.9363 52.2071 43.0847C52.7099 43.2326 53.1884 43.4034 53.4572 43.5116L53.4572 43.5116L53.4596 43.5125C55.2478 44.1993 57.8624 45.6723 60.3644 47.3239C62.8666 48.9756 65.2389 50.7947 66.5473 52.1674L66.5472 52.1675L66.5512 52.1714C66.7743 52.3895 67.0061 52.6324 67.1991 52.8373C67.2448 52.8857 67.2887 52.9325 67.3299 52.9764C67.4532 53.1078 67.5531 53.2142 67.6075 53.2671C68.128 53.9295 68.4044 54.7418 68.4044 55.6172C68.4044 56.4037 68.1568 57.1906 67.6649 57.8188Z" stroke="url(#paint3_linear_743_1049)" stroke-width="0.317427"/>
</g>
<defs>
<filter id="filter0_f_743_1049" x="2.96369" y="2.80097" width="80.1455" height="80.1455" filterUnits="userSpaceOnUse" color-interpolation-filters="sRGB">
<feFlood flood-opacity="0" result="BackgroundImageFix"/>
<feBlend mode="normal" in="SourceGraphic" in2="BackgroundImageFix" result="shape"/>
<feGaussianBlur stdDeviation="9.72" result="effect1_foregroundBlur_743_1049"/>
</filter>
<filter id="filter1_b_743_1049" x="2.94721" y="2.94721" width="105.308" height="105.308" filterUnits="userSpaceOnUse" color-interpolation-filters="sRGB">
<feFlood flood-opacity="0" result="BackgroundImageFix"/>
<feGaussianBlur in="BackgroundImageFix" stdDeviation="9.72"/>
<feComposite in2="SourceAlpha" operator="in" result="effect1_backgroundBlur_743_1049"/>
<feBlend mode="normal" in="SourceGraphic" in2="effect1_backgroundBlur_743_1049" result="shape"/>
</filter>
<filter id="filter2_bd_743_1049" x="33.9769" y="30.7364" width="46.4897" height="49.7302" filterUnits="userSpaceOnUse" color-interpolation-filters="sRGB">
<feFlood flood-opacity="0" result="BackgroundImageFix"/>
<feGaussianBlur in="BackgroundImageFix" stdDeviation="5.95175"/>
<feComposite in2="SourceAlpha" operator="in" result="effect1_backgroundBlur_743_1049"/>
<feColorMatrix in="SourceAlpha" type="matrix" values="0 0 0 0 0 0 0 0 0 0 0 0 0 0 0 0 0 0 127 0" result="hardAlpha"/>
<feOffset dx="3.96783" dy="3.96783"/>
<feGaussianBlur stdDeviation="3.96783"/>
<feColorMatrix type="matrix" values="0 0 0 0 0.321569 0 0 0 0 0.470824 0 0 0 0 1 0 0 0 0.5 0"/>
<feBlend mode="normal" in2="effect1_backgroundBlur_743_1049" result="effect2_dropShadow_743_1049"/>
<feBlend mode="normal" in="SourceGraphic" in2="effect2_dropShadow_743_1049" result="shape"/>
</filter>
<linearGradient id="paint0_linear_743_1049" x1="42.904" y1="10.5" x2="42.904" y2="75.3079" gradientUnits="userSpaceOnUse">
<stop stop-color="#AF84E7"/>
<stop offset="1" stop-color="#9350E7"/>
</linearGradient>
<linearGradient id="paint1_linear_743_1049" x1="33.5136" y1="30.7475" x2="87.9523" y2="83.888" gradientUnits="userSpaceOnUse">
<stop stop-color="white" stop-opacity="0.25"/>
<stop offset="1" stop-color="white" stop-opacity="0"/>
</linearGradient>
<linearGradient id="paint2_linear_743_1049" x1="66.955" y1="47.3211" x2="41.6822" y2="48.0421" gradientUnits="userSpaceOnUse">
<stop stop-color="white"/>
<stop offset="1" stop-color="white" stop-opacity="0.2"/>
</linearGradient>
<linearGradient id="paint3_linear_743_1049" x1="49.4911" y1="45.66" x2="66.3526" y2="63.933" gradientUnits="userSpaceOnUse">
<stop stop-color="white" stop-opacity="0.25"/>
<stop offset="1" stop-color="white" stop-opacity="0"/>
</linearGradient>
</defs>
</svg>
