<svg width="23" height="23" viewBox="0 0 23 23" fill="none" xmlns="http://www.w3.org/2000/svg">
<path d="M11.5 0C5.159 0 0 5.159 0 11.5C0 17.841 5.159 23 11.5 23C17.8415 23 23 17.841 23 11.5C23 5.159 17.8415 0 11.5 0ZM16.4865 13.7675C17.605 14.7605 17.8375 15.115 17.8755 15.1755C18.339 15.9105 17.3615 16 17.3615 16H15.3015C15.3015 16 14.8 16.0055 14.3715 15.7215C13.673 15.264 12.9415 14.377 12.4275 14.531C11.996 14.66 12 15.243 12 15.7415C12 15.92 11.8465 16 11.5 16C11.1535 16 11.0095 16 10.856 16C9.7275 16 8.503 15.62 7.2815 14.3435C5.5535 12.539 4.038 8.904 4.038 8.904C4.038 8.904 3.9485 8.721 4.046 8.6095C4.1565 8.4845 4.457 8.5005 4.457 8.5005L6.4545 8.5C6.4545 8.5 6.6425 8.5355 6.7775 8.6305C6.889 8.7085 6.951 8.8575 6.951 8.8575C6.951 8.8575 7.2865 9.9655 7.714 10.672C8.549 12.051 8.9375 12.086 9.221 11.9375C9.635 11.7225 9.5 10.2565 9.5 10.2565C9.5 10.2565 9.5185 9.627 9.3025 9.3465C9.136 9.1295 8.8175 9.014 8.6785 8.996C8.566 8.9815 8.754 8.7845 8.9935 8.672C9.3135 8.5295 9.749 8.493 10.5 8.5C11.0845 8.5055 11.253 8.5405 11.481 8.593C12.1705 8.752 12 9.1715 12 10.6445C12 11.1165 11.935 11.78 12.291 12C12.4445 12.095 12.9705 12.211 13.9065 10.691C14.351 9.97 14.7045 8.774 14.7045 8.774C14.7045 8.774 14.7775 8.6425 14.891 8.5775C15.007 8.511 15.0035 8.5125 15.1625 8.5125C15.3215 8.5125 16.916 8.5 17.266 8.5C17.6155 8.5 17.9435 8.496 18 8.701C18.081 8.9955 17.742 10.0045 16.883 11.0995C15.4715 12.8965 15.315 12.7285 16.4865 13.7675Z" fill="white"/>
</svg>
